<svg class="main-svg" xmlns="http://www.w3.org/2000/svg" xmlns:xlink="http://www.w3.org/1999/xlink" width="700" height="500" style="" viewBox="0 0 700 500"><rect x="0" y="0" width="700" height="500" style="fill: rgb(0, 0, 0); fill-opacity: 0;"/><defs id="defs-eac978"><g class="clips"/><g class="gradients"/><g class="patterns"/></defs><g class="bglayer"/><g class="layer-below"><g class="imagelayer"/><g class="shapelayer"/></g><g class="cartesianlayer"/><g class="polarlayer"/><g class="smithlayer"/><g class="ternarylayer"/><g class="geolayer"/><g class="funnelarealayer"/><g class="pielayer"><g class="trace" stroke-linejoin="round" style="opacity: 1;"><g class="slice"><path class="surface" d="M358.20393102329723,227.3705157793303a48,48 0 0 0 -35.20393102329721,-15.370515779330297l0,-112a160,160 0 0 1 117.34643674432402,51.23505259776766Z" style="pointer-events: none; stroke-width: 0; fill: rgb(0, 68, 27); fill-opacity: 1; stroke: rgb(68, 68, 68); stroke-opacity: 1;"/><g class="slicetext"><text data-notex="1" class="slicetext" transform="translate(368.6629601956768,151.9677958800428)" text-anchor="middle" x="0" y="0" style="font-family: 'Open Sans', verdana, arial, sans-serif; font-size: 12px; fill: rgb(255, 255, 255); fill-opacity: 1; white-space: pre;"><tspan class="line" dy="0em" x="0" y="0">have</tspan><tspan class="line" dy="1.3em" x="0" y="0">13.1%</tspan></text></g></g><g class="slice"><path class="surface" d="M323,212a48,48 0 0 0 -17.2962319361538,3.2245562745518583l-40.357874517692196,-104.476035359379a160,160 0 0 1 57.654106453846,-10.748520915172861Z" style="pointer-events: none; stroke-width: 0; fill: rgb(0, 109, 44); fill-opacity: 1; stroke: rgb(68, 68, 68); stroke-opacity: 1;"/><g class="slicetext"><text data-notex="1" class="slicetext" transform="translate(298.1556196365792,123.7675190040371)" text-anchor="middle" x="0" y="0" style="font-family: 'Open Sans', verdana, arial, sans-serif; font-size: 12px; fill: rgb(255, 255, 255); fill-opacity: 1; white-space: pre;"><tspan class="line" dy="0em" x="0" y="0">not</tspan><tspan class="line" dy="1.3em" x="0" y="0">5.87%</tspan></text></g></g><g class="slice"><path class="surface" d="M305.7037680638462,215.22455627455184a48,48 0 0 0 -13.7030941693883,8.127909279018377l-72.33176091293156,-85.5109137083361a160,160 0 0 1 45.67698056462767,-27.09303093006126Z" style="pointer-events: none; stroke-width: 0; fill: rgb(35, 139, 69); fill-opacity: 1; stroke: rgb(68, 68, 68); stroke-opacity: 1;"/><g class="slicetext"><text data-notex="1" class="slicetext" transform="translate(255.28148478918342,139.35342537431654)rotate(59.3259517514997)" text-anchor="middle" x="0" y="0" style="font-family: 'Open Sans', verdana, arial, sans-serif; font-size: 12px; fill: rgb(255, 255, 255); fill-opacity: 1; white-space: pre;"><tspan class="line" dy="0em" x="0" y="0">film</tspan><tspan class="line" dy="1.3em" x="0" y="0">5.31%</tspan></text></g></g><g class="slice"><path class="surface" d="M292.0006738944579,223.35246555357025a48,48 0 0 0 -10.12154724326199,11.8872078122431l-95.94870448054287,-57.774095479768874a160,160 0 0 1 33.7384908108733,-39.624026040810335Z" style="pointer-events: none; stroke-width: 0; fill: rgb(65, 171, 93); fill-opacity: 1; stroke: rgb(68, 68, 68); stroke-opacity: 1;"/><g class="slicetext"><text data-notex="1" class="slicetext" transform="translate(218.07790381879954,167.47750563313318)" text-anchor="middle" x="0" y="0" style="font-family: 'Open Sans', verdana, arial, sans-serif; font-size: 12px; fill: rgb(68, 68, 68); fill-opacity: 1; white-space: pre;"><tspan class="line" dy="0em" x="0" y="0">leave</tspan><tspan class="line" dy="1.3em" x="0" y="0">5.2%</tspan></text></g></g><g class="slice"><path class="surface" d="M281.8791266511959,235.23967336581333a48,48 0 0 0 -5.695647025594212,14.16724303999423l-109.2385475402627,-24.717195053115674a160,160 0 0 1 18.98549008531404,-47.22414346664743Z" style="pointer-events: none; stroke-width: 0; fill: rgb(116, 196, 118); fill-opacity: 1; stroke: rgb(68, 68, 68); stroke-opacity: 1;"/><g class="slicetext"><text data-notex="1" class="slicetext" transform="translate(195.23075365723165,205.07126386975742)rotate(21.90157311094731)" text-anchor="middle" x="0" y="0" style="font-family: 'Open Sans', verdana, arial, sans-serif; font-size: 12px; fill: rgb(68, 68, 68); fill-opacity: 1; white-space: pre;"><tspan class="line" dy="0em" x="0" y="0">tell</tspan><tspan class="line" dy="1.3em" x="0" y="0">5.08%</tspan></text></g></g><g class="slice"><path class="surface" d="M276.1834796256017,249.40691640580758a48,48 0 0 0 -1.019684613870919,14.55508969215429l-111.61781163929484,9.244680895244333a160,160 0 0 1 3.3989487129030636,-48.5169656405143Z" style="pointer-events: none; stroke-width: 0; fill: rgb(161, 217, 155); fill-opacity: 1; stroke: rgb(68, 68, 68); stroke-opacity: 1;"/><g class="slicetext"><text data-notex="1" class="slicetext" transform="translate(183.7823665283721,246.93405550254835)rotate(4.0074177517459475)" text-anchor="middle" x="0" y="0" style="font-family: 'Open Sans', verdana, arial, sans-serif; font-size: 12px; fill: rgb(68, 68, 68); fill-opacity: 1; white-space: pre;"><tspan class="line" dy="0em" x="0" y="0">man</tspan><tspan class="line" dy="1.3em" x="0" y="0">4.86%</tspan></text></g></g><g class="slice"><path class="surface" d="M275.16379501173077,263.9620060979619a48,48 0 0 0 3.377397333060685,14.13259038488823l-103.73721786215324,42.2207251266502a160,160 0 0 1 -11.257991110202283,-47.108634616294104Z" style="pointer-events: none; stroke-width: 0; fill: rgb(199, 233, 192); fill-opacity: 1; stroke: rgb(68, 68, 68); stroke-opacity: 1;"/><g class="slicetext"><text data-notex="1" class="slicetext" transform="translate(186.2044052561911,289.29357846203845)rotate(-13.440426750157599)" text-anchor="middle" x="0" y="0" style="font-family: 'Open Sans', verdana, arial, sans-serif; font-size: 12px; fill: rgb(68, 68, 68); fill-opacity: 1; white-space: pre;"><tspan class="line" dy="0em" x="0" y="0">find</tspan><tspan class="line" dy="1.3em" x="0" y="0">4.84%</tspan></text></g></g><g class="slice"><path class="surface" d="M278.54119234479145,278.0945964828501a48,48 0 0 0 7.265269661486728,12.247465601154225l-86.78492198535088,70.79814486267672a160,160 0 0 1 -24.217565538289094,-40.82488533718075Z" style="pointer-events: none; stroke-width: 0; fill: rgb(229, 245, 224); fill-opacity: 1; stroke: rgb(68, 68, 68); stroke-opacity: 1;"/><g class="slicetext"><text data-notex="1" class="slicetext" transform="translate(200.74655458134856,328.6790817108196)rotate(-30.676670866421773)" text-anchor="middle" x="0" y="0" style="font-family: 'Open Sans', verdana, arial, sans-serif; font-size: 12px; fill: rgb(68, 68, 68); fill-opacity: 1; white-space: pre;"><tspan class="line" dy="0em" x="0" y="0">take</tspan><tspan class="line" dy="1.3em" x="0" y="0">4.74%</tspan></text></g></g><g class="slice"><path class="surface" d="M285.8064620062782,290.3420620840043a48,48 0 0 0 10.315325850896581,9.426791457495753l-62.715828333258855,92.79399159683348a160,160 0 0 1 -34.38441950298861,-31.42263819165251Z" style="pointer-events: none; stroke-width: 0; fill: rgb(247, 252, 245); fill-opacity: 1; stroke: rgb(68, 68, 68); stroke-opacity: 1;"/><g class="slicetext"><text data-notex="1" class="slicetext" transform="translate(225.78809469215298,361.47599601636813)rotate(-47.57697475384623)" text-anchor="middle" x="0" y="0" style="font-family: 'Open Sans', verdana, arial, sans-serif; font-size: 12px; fill: rgb(68, 68, 68); fill-opacity: 1; white-space: pre;"><tspan class="line" dy="0em" x="0" y="0">love</tspan><tspan class="line" dy="1.3em" x="0" y="0">4.65%</tspan></text></g></g><g class="slice"><path class="surface" d="M296.12178785717475,299.76885354150005a48,48 0 0 0 12.272798433175375,5.955121464725849l-34.079298655849655,106.68927501452713a160,160 0 0 1 -40.90932811058458,-19.850404882419497Z" style="pointer-events: none; stroke-width: 0; fill: rgb(0, 68, 27); fill-opacity: 1; stroke: rgb(68, 68, 68); stroke-opacity: 1;"/><g class="slicetext"><text data-notex="1" class="slicetext" transform="translate(258.53104626725866,385.2928671090326)rotate(-64.11597940346167)" text-anchor="middle" x="0" y="0" style="font-family: 'Open Sans', verdana, arial, sans-serif; font-size: 12px; fill: rgb(255, 255, 255); fill-opacity: 1; white-space: pre;"><tspan class="line" dy="0em" x="0" y="0">life</tspan><tspan class="line" dy="1.3em" x="0" y="0">4.54%</tspan></text></g></g><g class="slice"><path class="surface" d="M308.39458629035016,305.72397500622594a48,48 0 0 0 13.360924452733734,2.259889432660421l-2.9038082661376086,111.96235035740145a160,160 0 0 1 -44.53641484244578,-7.532964775534737Z" style="pointer-events: none; stroke-width: 0; fill: rgb(0, 109, 44); fill-opacity: 1; stroke: rgb(68, 68, 68); stroke-opacity: 1;"/><g class="slicetext"><text data-notex="1" class="slicetext" transform="translate(296.35602583634903,397.7090847057827)rotate(-80.39975730304741)" text-anchor="middle" x="0" y="0" style="font-family: 'Open Sans', verdana, arial, sans-serif; font-size: 12px; fill: rgb(255, 255, 255); fill-opacity: 1; white-space: pre;"><tspan class="line" dy="0em" x="0" y="0">return</tspan><tspan class="line" dy="1.3em" x="0" y="0">4.51%</tspan></text></g></g><g class="slice"><path class="surface" d="M321.7555107430839,307.9838644388863a48,48 0 0 0 13.301547503747932,-1.5228340323993905l28.13313590927423,108.40907094846953a160,160 0 0 1 -44.33849167915977,5.076113441331302Z" style="pointer-events: none; stroke-width: 0; fill: rgb(35, 139, 69); fill-opacity: 1; stroke: rgb(68, 68, 68); stroke-opacity: 1;"/><g class="slicetext"><text data-notex="1" class="slicetext" transform="translate(341.91517930455956,396.8669871293249)scale(0.9758356157041485)rotate(83.46890041649078)" text-anchor="middle" x="0" y="0" style="font-family: 'Open Sans', verdana, arial, sans-serif; font-size: 12px; fill: rgb(255, 255, 255); fill-opacity: 1; white-space: pre;"><tspan class="line" dy="0em" x="0" y="0">George</tspan><tspan class="line" dy="1.3em" x="0" y="0">4.45%</tspan></text></g></g><g class="slice"><path class="surface" d="M335.0570582468318,306.46103040648694a48,48 0 0 0 12.257481206002593,-5.075004127118706l56.73392538994695,96.56739465185922a160,160 0 0 1 -40.85827068667531,16.91668042372902Z" style="pointer-events: none; stroke-width: 0; fill: rgb(65, 171, 93); fill-opacity: 1; stroke: rgb(68, 68, 68); stroke-opacity: 1;"/><g class="slicetext"><text data-notex="1" class="slicetext" transform="translate(380.0585674670243,389.1728005792332)rotate(67.50882134730966)" text-anchor="middle" x="0" y="0" style="font-family: 'Open Sans', verdana, arial, sans-serif; font-size: 12px; fill: rgb(68, 68, 68); fill-opacity: 1; white-space: pre;"><tspan class="line" dy="0em" x="0" y="0">Sam</tspan><tspan class="line" dy="1.3em" x="0" y="0">4.41%</tspan></text></g></g><g class="slice"><path class="surface" d="M347.3145394528344,301.38602627936825a48,48 0 0 0 10.194071446014213,-8.022037101935249l80.52009209731344,77.84930808067698a160,160 0 0 1 -33.98023815338071,26.740123673117495Z" style="pointer-events: none; stroke-width: 0; fill: rgb(116, 196, 118); fill-opacity: 1; stroke: rgb(68, 68, 68); stroke-opacity: 1;"/><g class="slicetext"><text data-notex="1" class="slicetext" transform="translate(413.1102442465109,369.1714838334993)scale(0.9986994080565293)rotate(51.79967408317475)" text-anchor="middle" x="0" y="0" style="font-family: 'Open Sans', verdana, arial, sans-serif; font-size: 12px; fill: rgb(68, 68, 68); fill-opacity: 1; white-space: pre;"><tspan class="line" dy="0em" x="0" y="0">s</tspan><tspan class="line" dy="1.3em" x="0" y="0">4.31%</tspan></text></g></g><g class="slice"><path class="surface" d="M357.5086108988486,293.363989177433a48,48 0 0 0 7.596266599578042,-10.31666198223563l98.24471416299554,53.77709678879384a160,160 0 0 1 -25.320888665260142,34.388873274118765Z" style="pointer-events: none; stroke-width: 0; fill: rgb(161, 217, 155); fill-opacity: 1; stroke: rgb(68, 68, 68); stroke-opacity: 1;"/><g class="slicetext"><text data-notex="1" class="slicetext" transform="translate(439.0485462913056,341.3891281537112)scale(0.9889763634250045)rotate(36.36460624742983)" text-anchor="middle" x="0" y="0" style="font-family: 'Open Sans', verdana, arial, sans-serif; font-size: 12px; fill: rgb(68, 68, 68); fill-opacity: 1; white-space: pre;"><tspan class="line" dy="0em" x="0" y="0">go</tspan><tspan class="line" dy="1.3em" x="0" y="0">4.26%</tspan></text></g></g><g class="slice"><path class="surface" d="M365.1048774984267,283.04732719519734a48,48 0 0 0 4.494106755736842,-11.534957044779965l108.73096325971484,26.862197017640593a160,160 0 0 1 -14.980355852456142,38.44985681593322Z" style="pointer-events: none; stroke-width: 0; fill: rgb(199, 233, 192); fill-opacity: 1; stroke: rgb(68, 68, 68); stroke-opacity: 1;"/><g class="slicetext"><text data-notex="1" class="slicetext" transform="translate(456.6709546138152,308.6654675373702)scale(0.9625292341594756)rotate(21.286265592253244)" text-anchor="middle" x="0" y="0" style="font-family: 'Open Sans', verdana, arial, sans-serif; font-size: 12px; fill: rgb(68, 68, 68); fill-opacity: 1; white-space: pre;"><tspan class="line" dy="0em" x="0" y="0">Harry</tspan><tspan class="line" dy="1.3em" x="0" y="0">4.12%</tspan></text></g></g><g class="slice"><path class="surface" d="M369.5989842541635,271.5123701504174a48,48 0 0 0 1.399162655555557,-11.934144062634209l111.9956761226778,-0.9841391285058901a160,160 0 0 1 -4.663875518518523,39.780480208780695Z" style="pointer-events: none; stroke-width: 0; fill: rgb(229, 245, 224); fill-opacity: 1; stroke: rgb(68, 68, 68); stroke-opacity: 1;"/><g class="slicetext"><text data-notex="1" class="slicetext" transform="translate(465.04542620325344,273.5258318355352)scale(0.9399802353166321)rotate(6.686848445079818)" text-anchor="middle" x="0" y="0" style="font-family: 'Open Sans', verdana, arial, sans-serif; font-size: 12px; fill: rgb(68, 68, 68); fill-opacity: 1; white-space: pre;"><tspan class="line" dy="0em" x="0" y="0">do</tspan><tspan class="line" dy="1.3em" x="0" y="0">3.99%</tspan></text></g></g><g class="slice"><path class="surface" d="M370.9981469097191,259.5782260877832a48,48 0 0 0 -1.57040775554039,-11.762849062317285l108.33139135975023,-28.430786940579555a160,160 0 0 1 5.234692518467966,39.20949687439095Z" style="pointer-events: none; stroke-width: 0; fill: rgb(247, 252, 245); fill-opacity: 1; stroke: rgb(68, 68, 68); stroke-opacity: 1;"/><g class="slicetext"><text data-notex="1" class="slicetext" transform="translate(464.0693254087824,238.06935284601565)scale(0.9289370104751794)rotate(-7.604348238191392)" text-anchor="middle" x="0" y="0" style="font-family: 'Open Sans', verdana, arial, sans-serif; font-size: 12px; fill: rgb(68, 68, 68); fill-opacity: 1; white-space: pre;"><tspan class="line" dy="0em" x="0" y="0">father</tspan><tspan class="line" dy="1.3em" x="0" y="0">3.94%</tspan></text></g></g><g class="slice"><path class="surface" d="M369.42773915417865,247.8153770254659a48,48 0 0 0 -4.364743408069043,-10.939052962971232l98.1469900742558,-53.955243854179095a160,160 0 0 1 14.549144693563477,36.463509876570775Z" style="pointer-events: none; stroke-width: 0; fill: rgb(0, 68, 27); fill-opacity: 1; stroke: rgb(68, 68, 68); stroke-opacity: 1;"/><g class="slicetext"><text data-notex="1" class="slicetext" transform="translate(445.28704734631896,208.45721488160927)scale(0.7727764739323366)rotate(-21.752276415221957)" text-anchor="middle" x="0" y="0" style="font-family: 'Open Sans', verdana, arial, sans-serif; font-size: 12px; fill: rgb(255, 255, 255); fill-opacity: 1; white-space: pre;"><tspan class="line" dy="0em" x="0" y="0">relationship</tspan><tspan class="line" dy="1.3em" x="0" y="0">3.92%</tspan></text></g></g><g class="slice"><path class="surface" d="M365.0629957461096,236.87632406249466a48,48 0 0 0 -6.859064722812499,-9.505808283164445l82.14250572102664,-76.1354631815628a160,160 0 0 1 22.863549076041664,31.68602761054815Z" style="pointer-events: none; stroke-width: 0; fill: rgb(0, 109, 44); fill-opacity: 1; stroke: rgb(68, 68, 68); stroke-opacity: 1;"/><g class="slicetext"><text data-notex="1" class="slicetext" transform="translate(436.532753174594,174.34986011792722)scale(0.9150054109478374)rotate(-35.81292209263114)" text-anchor="middle" x="0" y="0" style="font-family: 'Open Sans', verdana, arial, sans-serif; font-size: 12px; fill: rgb(255, 255, 255); fill-opacity: 1; white-space: pre;"><tspan class="line" dy="0em" x="0" y="0">family</tspan><tspan class="line" dy="1.3em" x="0" y="0">3.9%</tspan></text></g></g></g></g><g class="iciclelayer"/><g class="treemaplayer"/><g class="sunburstlayer"/><g class="glimages"/><defs id="topdefs-eac978"><g class="clips"/><clipPath id="legendeac978"><rect width="112" height="320" x="0" y="0"/></clipPath></defs><g class="layer-above"><g class="imagelayer"/><g class="shapelayer"/></g><g class="infolayer"><g class="legend" pointer-events="all" transform="translate(575.72,100)"><rect class="bg" shape-rendering="crispEdges" style="stroke: rgb(68, 68, 68); stroke-opacity: 1; fill: rgb(0, 0, 0); fill-opacity: 0; stroke-width: 0px;" width="112" height="320" x="0" y="0"/><g class="scrollbox" transform="" clip-path="url(#legendeac978)"><g class="groups"><g class="traces" transform="translate(0,14.5)" style="opacity: 1;"><text class="legendtext" text-anchor="start" x="40" y="4.680000000000001" style="font-family: 'Open Sans', verdana, arial, sans-serif; font-size: 12px; fill: rgb(42, 63, 95); fill-opacity: 1; white-space: pre;">have</text><g class="layers" style="opacity: 1;"><g class="legendfill"/><g class="legendlines"/><g class="legendsymbols"><g class="legendpoints"><path class="legendpie" d="M6,6H-6V-6H6Z" transform="translate(20,0)" style="stroke-width: 0; fill: rgb(0, 68, 27); fill-opacity: 1; stroke: rgb(68, 68, 68); stroke-opacity: 1;"/></g></g></g><rect class="legendtoggle" x="0" y="-9.5" width="106.703125" height="19" style="fill: rgb(0, 0, 0); fill-opacity: 0;"/></g><g class="traces" transform="translate(0,33.5)" style="opacity: 1;"><text class="legendtext" text-anchor="start" x="40" y="4.680000000000001" style="font-family: 'Open Sans', verdana, arial, sans-serif; font-size: 12px; fill: rgb(42, 63, 95); fill-opacity: 1; white-space: pre;">not</text><g class="layers" style="opacity: 1;"><g class="legendfill"/><g class="legendlines"/><g class="legendsymbols"><g class="legendpoints"><path class="legendpie" d="M6,6H-6V-6H6Z" transform="translate(20,0)" style="stroke-width: 0; fill: rgb(0, 109, 44); fill-opacity: 1; stroke: rgb(68, 68, 68); stroke-opacity: 1;"/></g></g></g><rect class="legendtoggle" x="0" y="-9.5" width="106.703125" height="19" style="fill: rgb(0, 0, 0); fill-opacity: 0;"/></g><g class="traces" transform="translate(0,52.5)" style="opacity: 1;"><text class="legendtext" text-anchor="start" x="40" y="4.680000000000001" style="font-family: 'Open Sans', verdana, arial, sans-serif; font-size: 12px; fill: rgb(42, 63, 95); fill-opacity: 1; white-space: pre;">film</text><g class="layers" style="opacity: 1;"><g class="legendfill"/><g class="legendlines"/><g class="legendsymbols"><g class="legendpoints"><path class="legendpie" d="M6,6H-6V-6H6Z" transform="translate(20,0)" style="stroke-width: 0; fill: rgb(35, 139, 69); fill-opacity: 1; stroke: rgb(68, 68, 68); stroke-opacity: 1;"/></g></g></g><rect class="legendtoggle" x="0" y="-9.5" width="106.703125" height="19" style="fill: rgb(0, 0, 0); fill-opacity: 0;"/></g><g class="traces" transform="translate(0,71.5)" style="opacity: 1;"><text class="legendtext" text-anchor="start" x="40" y="4.680000000000001" style="font-family: 'Open Sans', verdana, arial, sans-serif; font-size: 12px; fill: rgb(42, 63, 95); fill-opacity: 1; white-space: pre;">leave</text><g class="layers" style="opacity: 1;"><g class="legendfill"/><g class="legendlines"/><g class="legendsymbols"><g class="legendpoints"><path class="legendpie" d="M6,6H-6V-6H6Z" transform="translate(20,0)" style="stroke-width: 0; fill: rgb(65, 171, 93); fill-opacity: 1; stroke: rgb(68, 68, 68); stroke-opacity: 1;"/></g></g></g><rect class="legendtoggle" x="0" y="-9.5" width="106.703125" height="19" style="fill: rgb(0, 0, 0); fill-opacity: 0;"/></g><g class="traces" transform="translate(0,90.5)" style="opacity: 1;"><text class="legendtext" text-anchor="start" x="40" y="4.680000000000001" style="font-family: 'Open Sans', verdana, arial, sans-serif; font-size: 12px; fill: rgb(42, 63, 95); fill-opacity: 1; white-space: pre;">tell</text><g class="layers" style="opacity: 1;"><g class="legendfill"/><g class="legendlines"/><g class="legendsymbols"><g class="legendpoints"><path class="legendpie" d="M6,6H-6V-6H6Z" transform="translate(20,0)" style="stroke-width: 0; fill: rgb(116, 196, 118); fill-opacity: 1; stroke: rgb(68, 68, 68); stroke-opacity: 1;"/></g></g></g><rect class="legendtoggle" x="0" y="-9.5" width="106.703125" height="19" style="fill: rgb(0, 0, 0); fill-opacity: 0;"/></g><g class="traces" transform="translate(0,109.5)" style="opacity: 1;"><text class="legendtext" text-anchor="start" x="40" y="4.680000000000001" style="font-family: 'Open Sans', verdana, arial, sans-serif; font-size: 12px; fill: rgb(42, 63, 95); fill-opacity: 1; white-space: pre;">man</text><g class="layers" style="opacity: 1;"><g class="legendfill"/><g class="legendlines"/><g class="legendsymbols"><g class="legendpoints"><path class="legendpie" d="M6,6H-6V-6H6Z" transform="translate(20,0)" style="stroke-width: 0; fill: rgb(161, 217, 155); fill-opacity: 1; stroke: rgb(68, 68, 68); stroke-opacity: 1;"/></g></g></g><rect class="legendtoggle" x="0" y="-9.5" width="106.703125" height="19" style="fill: rgb(0, 0, 0); fill-opacity: 0;"/></g><g class="traces" transform="translate(0,128.5)" style="opacity: 1;"><text class="legendtext" text-anchor="start" x="40" y="4.680000000000001" style="font-family: 'Open Sans', verdana, arial, sans-serif; font-size: 12px; fill: rgb(42, 63, 95); fill-opacity: 1; white-space: pre;">find</text><g class="layers" style="opacity: 1;"><g class="legendfill"/><g class="legendlines"/><g class="legendsymbols"><g class="legendpoints"><path class="legendpie" d="M6,6H-6V-6H6Z" transform="translate(20,0)" style="stroke-width: 0; fill: rgb(199, 233, 192); fill-opacity: 1; stroke: rgb(68, 68, 68); stroke-opacity: 1;"/></g></g></g><rect class="legendtoggle" x="0" y="-9.5" width="106.703125" height="19" style="fill: rgb(0, 0, 0); fill-opacity: 0;"/></g><g class="traces" transform="translate(0,147.5)" style="opacity: 1;"><text class="legendtext" text-anchor="start" x="40" y="4.680000000000001" style="font-family: 'Open Sans', verdana, arial, sans-serif; font-size: 12px; fill: rgb(42, 63, 95); fill-opacity: 1; white-space: pre;">take</text><g class="layers" style="opacity: 1;"><g class="legendfill"/><g class="legendlines"/><g class="legendsymbols"><g class="legendpoints"><path class="legendpie" d="M6,6H-6V-6H6Z" transform="translate(20,0)" style="stroke-width: 0; fill: rgb(229, 245, 224); fill-opacity: 1; stroke: rgb(68, 68, 68); stroke-opacity: 1;"/></g></g></g><rect class="legendtoggle" x="0" y="-9.5" width="106.703125" height="19" style="fill: rgb(0, 0, 0); fill-opacity: 0;"/></g><g class="traces" transform="translate(0,166.5)" style="opacity: 1;"><text class="legendtext" text-anchor="start" x="40" y="4.680000000000001" style="font-family: 'Open Sans', verdana, arial, sans-serif; font-size: 12px; fill: rgb(42, 63, 95); fill-opacity: 1; white-space: pre;">love</text><g class="layers" style="opacity: 1;"><g class="legendfill"/><g class="legendlines"/><g class="legendsymbols"><g class="legendpoints"><path class="legendpie" d="M6,6H-6V-6H6Z" transform="translate(20,0)" style="stroke-width: 0; fill: rgb(247, 252, 245); fill-opacity: 1; stroke: rgb(68, 68, 68); stroke-opacity: 1;"/></g></g></g><rect class="legendtoggle" x="0" y="-9.5" width="106.703125" height="19" style="fill: rgb(0, 0, 0); fill-opacity: 0;"/></g><g class="traces" transform="translate(0,185.5)" style="opacity: 1;"><text class="legendtext" text-anchor="start" x="40" y="4.680000000000001" style="font-family: 'Open Sans', verdana, arial, sans-serif; font-size: 12px; fill: rgb(42, 63, 95); fill-opacity: 1; white-space: pre;">life</text><g class="layers" style="opacity: 1;"><g class="legendfill"/><g class="legendlines"/><g class="legendsymbols"><g class="legendpoints"><path class="legendpie" d="M6,6H-6V-6H6Z" transform="translate(20,0)" style="stroke-width: 0; fill: rgb(0, 68, 27); fill-opacity: 1; stroke: rgb(68, 68, 68); stroke-opacity: 1;"/></g></g></g><rect class="legendtoggle" x="0" y="-9.5" width="106.703125" height="19" style="fill: rgb(0, 0, 0); fill-opacity: 0;"/></g><g class="traces" transform="translate(0,204.5)" style="opacity: 1;"><text class="legendtext" text-anchor="start" x="40" y="4.680000000000001" style="font-family: 'Open Sans', verdana, arial, sans-serif; font-size: 12px; fill: rgb(42, 63, 95); fill-opacity: 1; white-space: pre;">return</text><g class="layers" style="opacity: 1;"><g class="legendfill"/><g class="legendlines"/><g class="legendsymbols"><g class="legendpoints"><path class="legendpie" d="M6,6H-6V-6H6Z" transform="translate(20,0)" style="stroke-width: 0; fill: rgb(0, 109, 44); fill-opacity: 1; stroke: rgb(68, 68, 68); stroke-opacity: 1;"/></g></g></g><rect class="legendtoggle" x="0" y="-9.5" width="106.703125" height="19" style="fill: rgb(0, 0, 0); fill-opacity: 0;"/></g><g class="traces" transform="translate(0,223.5)" style="opacity: 1;"><text class="legendtext" text-anchor="start" x="40" y="4.680000000000001" style="font-family: 'Open Sans', verdana, arial, sans-serif; font-size: 12px; fill: rgb(42, 63, 95); fill-opacity: 1; white-space: pre;">George</text><g class="layers" style="opacity: 1;"><g class="legendfill"/><g class="legendlines"/><g class="legendsymbols"><g class="legendpoints"><path class="legendpie" d="M6,6H-6V-6H6Z" transform="translate(20,0)" style="stroke-width: 0; fill: rgb(35, 139, 69); fill-opacity: 1; stroke: rgb(68, 68, 68); stroke-opacity: 1;"/></g></g></g><rect class="legendtoggle" x="0" y="-9.5" width="106.703125" height="19" style="fill: rgb(0, 0, 0); fill-opacity: 0;"/></g><g class="traces" transform="translate(0,242.5)" style="opacity: 1;"><text class="legendtext" text-anchor="start" x="40" y="4.680000000000001" style="font-family: 'Open Sans', verdana, arial, sans-serif; font-size: 12px; fill: rgb(42, 63, 95); fill-opacity: 1; white-space: pre;">Sam</text><g class="layers" style="opacity: 1;"><g class="legendfill"/><g class="legendlines"/><g class="legendsymbols"><g class="legendpoints"><path class="legendpie" d="M6,6H-6V-6H6Z" transform="translate(20,0)" style="stroke-width: 0; fill: rgb(65, 171, 93); fill-opacity: 1; stroke: rgb(68, 68, 68); stroke-opacity: 1;"/></g></g></g><rect class="legendtoggle" x="0" y="-9.5" width="106.703125" height="19" style="fill: rgb(0, 0, 0); fill-opacity: 0;"/></g><g class="traces" transform="translate(0,261.5)" style="opacity: 1;"><text class="legendtext" text-anchor="start" x="40" y="4.680000000000001" style="font-family: 'Open Sans', verdana, arial, sans-serif; font-size: 12px; fill: rgb(42, 63, 95); fill-opacity: 1; white-space: pre;">s</text><g class="layers" style="opacity: 1;"><g class="legendfill"/><g class="legendlines"/><g class="legendsymbols"><g class="legendpoints"><path class="legendpie" d="M6,6H-6V-6H6Z" transform="translate(20,0)" style="stroke-width: 0; fill: rgb(116, 196, 118); fill-opacity: 1; stroke: rgb(68, 68, 68); stroke-opacity: 1;"/></g></g></g><rect class="legendtoggle" x="0" y="-9.5" width="106.703125" height="19" style="fill: rgb(0, 0, 0); fill-opacity: 0;"/></g><g class="traces" transform="translate(0,280.5)" style="opacity: 1;"><text class="legendtext" text-anchor="start" x="40" y="4.680000000000001" style="font-family: 'Open Sans', verdana, arial, sans-serif; font-size: 12px; fill: rgb(42, 63, 95); fill-opacity: 1; white-space: pre;">go</text><g class="layers" style="opacity: 1;"><g class="legendfill"/><g class="legendlines"/><g class="legendsymbols"><g class="legendpoints"><path class="legendpie" d="M6,6H-6V-6H6Z" transform="translate(20,0)" style="stroke-width: 0; fill: rgb(161, 217, 155); fill-opacity: 1; stroke: rgb(68, 68, 68); stroke-opacity: 1;"/></g></g></g><rect class="legendtoggle" x="0" y="-9.5" width="106.703125" height="19" style="fill: rgb(0, 0, 0); fill-opacity: 0;"/></g><g class="traces" transform="translate(0,299.5)" style="opacity: 1;"><text class="legendtext" text-anchor="start" x="40" y="4.680000000000001" style="font-family: 'Open Sans', verdana, arial, sans-serif; font-size: 12px; fill: rgb(42, 63, 95); fill-opacity: 1; white-space: pre;">Harry</text><g class="layers" style="opacity: 1;"><g class="legendfill"/><g class="legendlines"/><g class="legendsymbols"><g class="legendpoints"><path class="legendpie" d="M6,6H-6V-6H6Z" transform="translate(20,0)" style="stroke-width: 0; fill: rgb(199, 233, 192); fill-opacity: 1; stroke: rgb(68, 68, 68); stroke-opacity: 1;"/></g></g></g><rect class="legendtoggle" x="0" y="-9.5" width="106.703125" height="19" style="fill: rgb(0, 0, 0); fill-opacity: 0;"/></g><g class="traces" transform="translate(0,318.5)" style="opacity: 1;"><text class="legendtext" text-anchor="start" x="40" y="4.680000000000001" style="font-family: 'Open Sans', verdana, arial, sans-serif; font-size: 12px; fill: rgb(42, 63, 95); fill-opacity: 1; white-space: pre;">do</text><g class="layers" style="opacity: 1;"><g class="legendfill"/><g class="legendlines"/><g class="legendsymbols"><g class="legendpoints"><path class="legendpie" d="M6,6H-6V-6H6Z" transform="translate(20,0)" style="stroke-width: 0; fill: rgb(229, 245, 224); fill-opacity: 1; stroke: rgb(68, 68, 68); stroke-opacity: 1;"/></g></g></g><rect class="legendtoggle" x="0" y="-9.5" width="106.703125" height="19" style="fill: rgb(0, 0, 0); fill-opacity: 0;"/></g><g class="traces" transform="translate(0,337.5)" style="opacity: 1;"><text class="legendtext" text-anchor="start" x="40" y="4.680000000000001" style="font-family: 'Open Sans', verdana, arial, sans-serif; font-size: 12px; fill: rgb(42, 63, 95); fill-opacity: 1; white-space: pre;">father</text><g class="layers" style="opacity: 1;"><g class="legendfill"/><g class="legendlines"/><g class="legendsymbols"><g class="legendpoints"><path class="legendpie" d="M6,6H-6V-6H6Z" transform="translate(20,0)" style="stroke-width: 0; fill: rgb(247, 252, 245); fill-opacity: 1; stroke: rgb(68, 68, 68); stroke-opacity: 1;"/></g></g></g><rect class="legendtoggle" x="0" y="-9.5" width="106.703125" height="19" style="fill: rgb(0, 0, 0); fill-opacity: 0;"/></g><g class="traces" transform="translate(0,356.5)" style="opacity: 1;"><text class="legendtext" text-anchor="start" x="40" y="4.680000000000001" style="font-family: 'Open Sans', verdana, arial, sans-serif; font-size: 12px; fill: rgb(42, 63, 95); fill-opacity: 1; white-space: pre;">relationship</text><g class="layers" style="opacity: 1;"><g class="legendfill"/><g class="legendlines"/><g class="legendsymbols"><g class="legendpoints"><path class="legendpie" d="M6,6H-6V-6H6Z" transform="translate(20,0)" style="stroke-width: 0; fill: rgb(0, 68, 27); fill-opacity: 1; stroke: rgb(68, 68, 68); stroke-opacity: 1;"/></g></g></g><rect class="legendtoggle" x="0" y="-9.5" width="106.703125" height="19" style="fill: rgb(0, 0, 0); fill-opacity: 0;"/></g><g class="traces" transform="translate(0,375.5)" style="opacity: 1;"><text class="legendtext" text-anchor="start" x="40" y="4.680000000000001" style="font-family: 'Open Sans', verdana, arial, sans-serif; font-size: 12px; fill: rgb(42, 63, 95); fill-opacity: 1; white-space: pre;">family</text><g class="layers" style="opacity: 1;"><g class="legendfill"/><g class="legendlines"/><g class="legendsymbols"><g class="legendpoints"><path class="legendpie" d="M6,6H-6V-6H6Z" transform="translate(20,0)" style="stroke-width: 0; fill: rgb(0, 109, 44); fill-opacity: 1; stroke: rgb(68, 68, 68); stroke-opacity: 1;"/></g></g></g><rect class="legendtoggle" x="0" y="-9.5" width="106.703125" height="19" style="fill: rgb(0, 0, 0); fill-opacity: 0;"/></g></g></g><rect class="scrollbar" rx="20" ry="3" width="0" height="0" style="fill: rgb(128, 139, 164); fill-opacity: 1;" x="0" y="0"/></g><g class="g-gtitle"><text class="gtitle" x="35" y="50" text-anchor="start" dy="0em" style="font-family: 'Open Sans', verdana, arial, sans-serif; font-size: 17px; fill: rgb(42, 63, 95); opacity: 1; font-weight: normal; white-space: pre;">High rating topic 1 of genre: Romance Film</text></g></g></svg>