<svg class="main-svg" xmlns="http://www.w3.org/2000/svg" xmlns:xlink="http://www.w3.org/1999/xlink" width="700" height="500" style="" viewBox="0 0 700 500"><rect x="0" y="0" width="700" height="500" style="fill: rgb(0, 0, 0); fill-opacity: 0;"/><defs id="defs-9e69b0"><g class="clips"/><g class="gradients"/><g class="patterns"/></defs><g class="bglayer"/><g class="layer-below"><g class="imagelayer"/><g class="shapelayer"/></g><g class="cartesianlayer"/><g class="polarlayer"/><g class="smithlayer"/><g class="ternarylayer"/><g class="geolayer"/><g class="funnelarealayer"/><g class="pielayer"><g class="trace" stroke-linejoin="round" style="opacity: 1;"><g class="slice"><path class="surface" d="M369.2270452043722,222.71292800161373a48,48 0 0 0 -30.227045204372175,-10.712928001613736l0,-112a160,160 0 0 1 100.75681734790726,35.709760005379124Z" style="pointer-events: none; stroke-width: 0; fill: rgb(255, 245, 235); fill-opacity: 1; stroke: rgb(68, 68, 68); stroke-opacity: 1;"/><g class="slicetext"><text data-notex="1" class="slicetext" transform="translate(379.00244944629924,143.65011721429028)" text-anchor="middle" x="0" y="0" style="font-family: 'Open Sans', verdana, arial, sans-serif; font-size: 12px; fill: rgb(68, 68, 68); fill-opacity: 1; white-space: pre;"><tspan class="line" dy="0em" x="0" y="0">have</tspan><tspan class="line" dy="1.3em" x="0" y="0">10.8%</tspan></text></g></g><g class="slice"><path class="surface" d="M339,212a48,48 0 0 0 -20.887611989746652,4.783016470769366l-48.73776130940885,-100.83962823487147a160,160 0 0 1 69.62537329915551,-15.943388235897885Z" style="pointer-events: none; stroke-width: 0; fill: rgb(254, 230, 206); fill-opacity: 1; stroke: rgb(68, 68, 68); stroke-opacity: 1;"/><g class="slicetext"><text data-notex="1" class="slicetext" transform="translate(309.7407859820534,129.19216934557778)" text-anchor="middle" x="0" y="0" style="font-family: 'Open Sans', verdana, arial, sans-serif; font-size: 12px; fill: rgb(68, 68, 68); fill-opacity: 1; white-space: pre;"><tspan class="line" dy="0em" x="0" y="0">kill</tspan><tspan class="line" dy="1.3em" x="0" y="0">7.17%</tspan></text></g></g><g class="slice"><path class="surface" d="M318.11238801025337,216.78301647076938a48,48 0 0 0 -15.934032211881421,12.424670879987977l-85.91716980379884,-71.84872951489953a160,160 0 0 1 53.113440706271405,-41.41556959995992Z" style="pointer-events: none; stroke-width: 0; fill: rgb(253, 208, 162); fill-opacity: 1; stroke: rgb(68, 68, 68); stroke-opacity: 1;"/><g class="slicetext"><text data-notex="1" class="slicetext" transform="translate(257.65864504992226,152.45915965305792)" text-anchor="middle" x="0" y="0" style="font-family: 'Open Sans', verdana, arial, sans-serif; font-size: 12px; fill: rgb(68, 68, 68); fill-opacity: 1; white-space: pre;"><tspan class="line" dy="0em" x="0" y="0">find</tspan><tspan class="line" dy="1.3em" x="0" y="0">6.75%</tspan></text></g></g><g class="slice"><path class="surface" d="M302.1783557983719,229.20768735075734a48,48 0 0 0 -8.256032893505266,14.29979835617955l-105.18124655531112,-38.48253335048058a160,160 0 0 1 27.520109645017556,-47.6659945205985Z" style="pointer-events: none; stroke-width: 0; fill: rgb(253, 174, 107); fill-opacity: 1; stroke: rgb(68, 68, 68); stroke-opacity: 1;"/><g class="slicetext"><text data-notex="1" class="slicetext" transform="translate(220.70892614677115,188.43567901624112)" text-anchor="middle" x="0" y="0" style="font-family: 'Open Sans', verdana, arial, sans-serif; font-size: 12px; fill: rgb(68, 68, 68); fill-opacity: 1; white-space: pre;"><tspan class="line" dy="0em" x="0" y="0">not</tspan><tspan class="line" dy="1.3em" x="0" y="0">5.5%</tspan></text></g></g><g class="slice"><path class="surface" d="M293.92232290486663,243.5074857069369a48,48 0 0 0 -2.921236896153752,16.169627847041834l-111.99746597966988,-0.7534017073829652a160,160 0 0 1 9.737456320512507,-53.898759490139454Z" style="pointer-events: none; stroke-width: 0; fill: rgb(253, 141, 60); fill-opacity: 1; stroke: rgb(68, 68, 68); stroke-opacity: 1;"/><g class="slicetext"><text data-notex="1" class="slicetext" transform="translate(204.00636132221544,232.25359775589823)rotate(10.240707517924761)" text-anchor="middle" x="0" y="0" style="font-family: 'Open Sans', verdana, arial, sans-serif; font-size: 12px; fill: rgb(68, 68, 68); fill-opacity: 1; white-space: pre;"><tspan class="line" dy="0em" x="0" y="0">go</tspan><tspan class="line" dy="1.3em" x="0" y="0">5.48%</tspan></text></g></g><g class="slice"><path class="surface" d="M291.0010860087129,259.67711355397876a48,48 0 0 0 2.4978628269608008,15.608642656996278l-106.16911938342801,35.666764492275014a160,160 0 0 1 -8.32620942320267,-52.02880885665426Z" style="pointer-events: none; stroke-width: 0; fill: rgb(241, 105, 19); fill-opacity: 1; stroke: rgb(68, 68, 68); stroke-opacity: 1;"/><g class="slicetext"><text data-notex="1" class="slicetext" transform="translate(201.76874312950181,278.6144850293236)rotate(-9.091994909518462)" text-anchor="middle" x="0" y="0" style="font-family: 'Open Sans', verdana, arial, sans-serif; font-size: 12px; fill: rgb(68, 68, 68); fill-opacity: 1; white-space: pre;"><tspan class="line" dy="0em" x="0" y="0">take</tspan><tspan class="line" dy="1.3em" x="0" y="0">5.27%</tspan></text></g></g><g class="slice"><path class="surface" d="M293.49894883567373,275.285756210975a48,48 0 0 0 6.4650759414274175,12.646172444189938l-91.08394218676403,65.17450019538487a160,160 0 0 1 -21.550253138091392,-42.153908147299795Z" style="pointer-events: none; stroke-width: 0; fill: rgb(217, 72, 1); fill-opacity: 1; stroke: rgb(68, 68, 68); stroke-opacity: 1;"/><g class="slicetext"><text data-notex="1" class="slicetext" transform="translate(212.63856184929844,320.8879952400852)rotate(-27.07738464804129)" text-anchor="middle" x="0" y="0" style="font-family: 'Open Sans', verdana, arial, sans-serif; font-size: 12px; fill: rgb(255, 255, 255); fill-opacity: 1; white-space: pre;"><tspan class="line" dy="0em" x="0" y="0">then</tspan><tspan class="line" dy="1.3em" x="0" y="0">4.73%</tspan></text></g></g><g class="slice"><path class="surface" d="M299.96402477710114,287.93192865516494a48,48 0 0 0 9.81312625507636,10.147266428290196l-68.18664759158587,88.85145519472866a160,160 0 0 1 -32.710420850254536,-33.82422142763399Z" style="pointer-events: none; stroke-width: 0; fill: rgb(166, 54, 3); fill-opacity: 1; stroke: rgb(68, 68, 68); stroke-opacity: 1;"/><g class="slicetext"><text data-notex="1" class="slicetext" transform="translate(242.12582641691137,353.5972506765542)rotate(45.959050954482336)" text-anchor="middle" x="0" y="0" style="font-family: 'Open Sans', verdana, arial, sans-serif; font-size: 12px; fill: rgb(255, 255, 255); fill-opacity: 1; white-space: pre;"><tspan class="line" dy="0em" x="0" y="0">tell</tspan><tspan class="line" dy="1.3em" x="0" y="0">4.7%</tspan></text></g></g><g class="slice"><path class="surface" d="M309.77715103217747,298.07919508345515a48,48 0 0 0 12.336354652712524,6.852378556311334l-39.40182006858998,104.84033849278843a160,160 0 0 1 -41.12118217570841,-22.841261854371112Z" style="pointer-events: none; stroke-width: 0; fill: rgb(127, 39, 4); fill-opacity: 1; stroke: rgb(68, 68, 68); stroke-opacity: 1;"/><g class="slicetext"><text data-notex="1" class="slicetext" transform="translate(273.53336832050525,377.73103265868326)rotate(29.050516092313728)" text-anchor="middle" x="0" y="0" style="font-family: 'Open Sans', verdana, arial, sans-serif; font-size: 12px; fill: rgb(255, 255, 255); fill-opacity: 1; white-space: pre;"><tspan class="line" dy="0em" x="0" y="0">get</tspan><tspan class="line" dy="1.3em" x="0" y="0">4.7%</tspan></text></g></g><g class="slice"><path class="surface" d="M322.11350568489,304.9315736397665a48,48 0 0 0 13.745536767023472,2.9655492976409277l-7.328900945535211,111.75995352061727a160,160 0 0 1 -45.81845589007824,-9.88516432546976Z" style="pointer-events: none; stroke-width: 0; fill: rgb(255, 245, 235); fill-opacity: 1; stroke: rgb(68, 68, 68); stroke-opacity: 1;"/><g class="slicetext"><text data-notex="1" class="slicetext" transform="translate(306.1628432676962,396.5327110240628)rotate(-77.82525312220662)" text-anchor="middle" x="0" y="0" style="font-family: 'Open Sans', verdana, arial, sans-serif; font-size: 12px; fill: rgb(68, 68, 68); fill-opacity: 1; white-space: pre;"><tspan class="line" dy="0em" x="0" y="0">see</tspan><tspan class="line" dy="1.3em" x="0" y="0">4.68%</tspan></text></g></g><g class="slice"><path class="surface" d="M335.85904245191347,307.8971229374074a48,48 0 0 0 13.34118649826795,-0.9934415321714141l23.800534217090004,109.44192327888396a160,160 0 0 1 -44.470621660893165,3.3114717739047137Z" style="pointer-events: none; stroke-width: 0; fill: rgb(254, 230, 206); fill-opacity: 1; stroke: rgb(68, 68, 68); stroke-opacity: 1;"/><g class="slicetext"><text data-notex="1" class="slicetext" transform="translate(352.769431128844,400.41091224439936)rotate(85.74137203644943)" text-anchor="middle" x="0" y="0" style="font-family: 'Open Sans', verdana, arial, sans-serif; font-size: 12px; fill: rgb(68, 68, 68); fill-opacity: 1; white-space: pre;"><tspan class="line" dy="0em" x="0" y="0">leave</tspan><tspan class="line" dy="1.3em" x="0" y="0">4.45%</tspan></text></g></g><g class="slice"><path class="surface" d="M349.20022895018144,306.903681405236a48,48 0 0 0 12.29777658096352,-4.502741001507073l52.49534623933822,98.9355276087008a160,160 0 0 1 -40.992588603211736,15.009136671690243Z" style="pointer-events: none; stroke-width: 0; fill: rgb(253, 208, 162); fill-opacity: 1; stroke: rgb(68, 68, 68); stroke-opacity: 1;"/><g class="slicetext"><text data-notex="1" class="slicetext" transform="translate(390.71022776868557,391.6180607762371)rotate(69.89016478724761)" text-anchor="middle" x="0" y="0" style="font-family: 'Open Sans', verdana, arial, sans-serif; font-size: 12px; fill: rgb(68, 68, 68); fill-opacity: 1; white-space: pre;"><tspan class="line" dy="0em" x="0" y="0">man</tspan><tspan class="line" dy="1.3em" x="0" y="0">4.36%</tspan></text></g></g><g class="slice"><path class="surface" d="M361.49800553114494,302.4009404037289a48,48 0 0 0 10.502932584369074,-7.544978453210126l77.00218893619939,81.33057788454384a160,160 0 0 1 -35.00977528123025,25.149928177367087Z" style="pointer-events: none; stroke-width: 0; fill: rgb(253, 174, 107); fill-opacity: 1; stroke: rgb(68, 68, 68); stroke-opacity: 1;"/><g class="slicetext"><text data-notex="1" class="slicetext" transform="translate(423.99248892476146,372.70383516896004)scale(0.9903113447589625)rotate(54.307714823485526)" text-anchor="middle" x="0" y="0" style="font-family: 'Open Sans', verdana, arial, sans-serif; font-size: 12px; fill: rgb(68, 68, 68); fill-opacity: 1; white-space: pre;"><tspan class="line" dy="0em" x="0" y="0">house</tspan><tspan class="line" dy="1.3em" x="0" y="0">4.3%</tspan></text></g></g><g class="slice"><path class="surface" d="M372.00093811551403,294.8559619505188a48,48 0 0 0 7.831748493790976,-9.62321132229191l95.276268755045,58.87641813252938a160,160 0 0 1 -26.10582831263659,32.07737107430637Z" style="pointer-events: none; stroke-width: 0; fill: rgb(253, 141, 60); fill-opacity: 1; stroke: rgb(68, 68, 68); stroke-opacity: 1;"/><g class="slicetext"><text data-notex="1" class="slicetext" transform="translate(451.29117670205886,347.2785427900391)scale(0.9642450215185053)rotate(39.14005421913578)" text-anchor="middle" x="0" y="0" style="font-family: 'Open Sans', verdana, arial, sans-serif; font-size: 12px; fill: rgb(68, 68, 68); fill-opacity: 1; white-space: pre;"><tspan class="line" dy="0em" x="0" y="0">Alex</tspan><tspan class="line" dy="1.3em" x="0" y="0">4.13%</tspan></text></g></g><g class="slice"><path class="surface" d="M379.83268660930503,285.2327506282269a48,48 0 0 0 5.070123321231542,-11.199502947057875l107.10655650458527,32.74424458939434a160,160 0 0 1 -16.90041107077181,37.33167649019292Z" style="pointer-events: none; stroke-width: 0; fill: rgb(241, 105, 19); fill-opacity: 1; stroke: rgb(68, 68, 68); stroke-opacity: 1;"/><g class="slicetext"><text data-notex="1" class="slicetext" transform="translate(469.9584019888713,315.81372110304466)scale(0.957232280930026)rotate(24.3567227130265)" text-anchor="middle" x="0" y="0" style="font-family: 'Open Sans', verdana, arial, sans-serif; font-size: 12px; fill: rgb(68, 68, 68); fill-opacity: 1; white-space: pre;"><tspan class="line" dy="0em" x="0" y="0">do</tspan><tspan class="line" dy="1.3em" x="0" y="0">4.09%</tspan></text></g></g><g class="slice"><path class="surface" d="M384.90280993053653,274.03324768116903a48,48 0 0 0 2.052564794470385,-11.96393982969632l111.8958743583495,4.82838498676959a160,160 0 0 1 -6.841882648234616,39.87979943232107Z" style="pointer-events: none; stroke-width: 0; fill: rgb(217, 72, 1); fill-opacity: 1; stroke: rgb(68, 68, 68); stroke-opacity: 1;"/><g class="slicetext"><text data-notex="1" class="slicetext" transform="translate(479.9839836089378,281.0102108555019)scale(0.9476286632452839)rotate(9.735039218284044)" text-anchor="middle" x="0" y="0" style="font-family: 'Open Sans', verdana, arial, sans-serif; font-size: 12px; fill: rgb(255, 255, 255); fill-opacity: 1; white-space: pre;"><tspan class="line" dy="0em" x="0" y="0">car</tspan><tspan class="line" dy="1.3em" x="0" y="0">4.04%</tspan></text></g></g><g class="slice"><path class="surface" d="M386.95537472500695,262.0693078514727a48,48 0 0 0 -0.8584186759015636,-11.336277739663585l109.89289744791252,-21.622929739112106a160,160 0 0 1 2.8613955863385456,37.78759246554528Z" style="pointer-events: none; stroke-width: 0; fill: rgb(166, 54, 3); fill-opacity: 1; stroke: rgb(68, 68, 68); stroke-opacity: 1;"/><g class="slicetext"><text data-notex="1" class="slicetext" transform="translate(481.2704568796797,246.2600474692185)scale(0.8951877656483203)rotate(-4.330352864505414)" text-anchor="middle" x="0" y="0" style="font-family: 'Open Sans', verdana, arial, sans-serif; font-size: 12px; fill: rgb(255, 255, 255); fill-opacity: 1; white-space: pre;"><tspan class="line" dy="0em" x="0" y="0">attack</tspan><tspan class="line" dy="1.3em" x="0" y="0">3.78%</tspan></text></g></g><g class="slice"><path class="surface" d="M386.09695604910536,250.7330301118091a48,48 0 0 0 -3.484317148403474,-10.781414787811906l101.76282410163775,-46.77956424400655a160,160 0 0 1 11.614390494678247,35.93804929270635Z" style="pointer-events: none; stroke-width: 0; fill: rgb(127, 39, 4); fill-opacity: 1; stroke: rgb(68, 68, 68); stroke-opacity: 1;"/><g class="slicetext"><text data-notex="1" class="slicetext" transform="translate(474.6225974157825,213.05541944615277)scale(0.8967305621097246)rotate(-17.909696475231442)" text-anchor="middle" x="0" y="0" style="font-family: 'Open Sans', verdana, arial, sans-serif; font-size: 12px; fill: rgb(255, 255, 255); fill-opacity: 1; white-space: pre;"><tspan class="line" dy="0em" x="0" y="0">back</tspan><tspan class="line" dy="1.3em" x="0" y="0">3.77%</tspan></text></g></g><g class="slice"><path class="surface" d="M382.6126389007019,239.9516153239972a48,48 0 0 0 -5.73166238795914,-9.430957556160918l88.38894519639975,-68.78513187504869a160,160 0 0 1 19.105541293197135,31.43652518720306Z" style="pointer-events: none; stroke-width: 0; fill: rgb(255, 245, 235); fill-opacity: 1; stroke: rgb(68, 68, 68); stroke-opacity: 1;"/><g class="slicetext"><text data-notex="1" class="slicetext" transform="translate(460.42097073901516,182.81167558307337)scale(0.8778481293103653)rotate(-31.28913300539608)" text-anchor="middle" x="0" y="0" style="font-family: 'Open Sans', verdana, arial, sans-serif; font-size: 12px; fill: rgb(68, 68, 68); fill-opacity: 1; white-space: pre;"><tspan class="line" dy="0em" x="0" y="0">begin</tspan><tspan class="line" dy="1.3em" x="0" y="0">3.67%</tspan></text></g></g><g class="slice"><path class="surface" d="M376.88097651274273,230.52065776783627a48,48 0 0 0 -7.653931308370583,-7.80772976622254l70.52977214353506,-87.00316799623462a160,160 0 0 1 25.51310436123528,26.02576588740847Z" style="pointer-events: none; stroke-width: 0; fill: rgb(254, 230, 206); fill-opacity: 1; stroke: rgb(68, 68, 68); stroke-opacity: 1;"/><g class="slicetext"><text data-notex="1" class="slicetext" transform="translate(439.79876669157693,157.15496942508142)scale(0.8712303637550063)rotate(-44.43009280359888)" text-anchor="middle" x="0" y="0" style="font-family: 'Open Sans', verdana, arial, sans-serif; font-size: 12px; fill: rgb(68, 68, 68); fill-opacity: 1; white-space: pre;"><tspan class="line" dy="0em" x="0" y="0">killer</tspan><tspan class="line" dy="1.3em" x="0" y="0">3.63%</tspan></text></g></g></g></g><g class="iciclelayer"/><g class="treemaplayer"/><g class="sunburstlayer"/><g class="glimages"/><defs id="topdefs-9e69b0"><g class="clips"/><clipPath id="legend9e69b0"><rect width="80" height="320" x="0" y="0"/></clipPath></defs><g class="layer-above"><g class="imagelayer"/><g class="shapelayer"/></g><g class="infolayer"><g class="legend" pointer-events="all" transform="translate(608.36,100)"><rect class="bg" shape-rendering="crispEdges" style="stroke: rgb(68, 68, 68); stroke-opacity: 1; fill: rgb(0, 0, 0); fill-opacity: 0; stroke-width: 0px;" width="80" height="320" x="0" y="0"/><g class="scrollbox" transform="" clip-path="url(#legend9e69b0)"><g class="groups"><g class="traces" transform="translate(0,14.5)" style="opacity: 1;"><text class="legendtext" text-anchor="start" x="40" y="4.680000000000001" style="font-family: 'Open Sans', verdana, arial, sans-serif; font-size: 12px; fill: rgb(42, 63, 95); fill-opacity: 1; white-space: pre;">have</text><g class="layers" style="opacity: 1;"><g class="legendfill"/><g class="legendlines"/><g class="legendsymbols"><g class="legendpoints"><path class="legendpie" d="M6,6H-6V-6H6Z" transform="translate(20,0)" style="stroke-width: 0; fill: rgb(255, 245, 235); fill-opacity: 1; stroke: rgb(68, 68, 68); stroke-opacity: 1;"/></g></g></g><rect class="legendtoggle" x="0" y="-9.5" width="74.703125" height="19" style="fill: rgb(0, 0, 0); fill-opacity: 0;"/></g><g class="traces" transform="translate(0,33.5)" style="opacity: 1;"><text class="legendtext" text-anchor="start" x="40" y="4.680000000000001" style="font-family: 'Open Sans', verdana, arial, sans-serif; font-size: 12px; fill: rgb(42, 63, 95); fill-opacity: 1; white-space: pre;">kill</text><g class="layers" style="opacity: 1;"><g class="legendfill"/><g class="legendlines"/><g class="legendsymbols"><g class="legendpoints"><path class="legendpie" d="M6,6H-6V-6H6Z" transform="translate(20,0)" style="stroke-width: 0; fill: rgb(254, 230, 206); fill-opacity: 1; stroke: rgb(68, 68, 68); stroke-opacity: 1;"/></g></g></g><rect class="legendtoggle" x="0" y="-9.5" width="74.703125" height="19" style="fill: rgb(0, 0, 0); fill-opacity: 0;"/></g><g class="traces" transform="translate(0,52.5)" style="opacity: 1;"><text class="legendtext" text-anchor="start" x="40" y="4.680000000000001" style="font-family: 'Open Sans', verdana, arial, sans-serif; font-size: 12px; fill: rgb(42, 63, 95); fill-opacity: 1; white-space: pre;">find</text><g class="layers" style="opacity: 1;"><g class="legendfill"/><g class="legendlines"/><g class="legendsymbols"><g class="legendpoints"><path class="legendpie" d="M6,6H-6V-6H6Z" transform="translate(20,0)" style="stroke-width: 0; fill: rgb(253, 208, 162); fill-opacity: 1; stroke: rgb(68, 68, 68); stroke-opacity: 1;"/></g></g></g><rect class="legendtoggle" x="0" y="-9.5" width="74.703125" height="19" style="fill: rgb(0, 0, 0); fill-opacity: 0;"/></g><g class="traces" transform="translate(0,71.5)" style="opacity: 1;"><text class="legendtext" text-anchor="start" x="40" y="4.680000000000001" style="font-family: 'Open Sans', verdana, arial, sans-serif; font-size: 12px; fill: rgb(42, 63, 95); fill-opacity: 1; white-space: pre;">not</text><g class="layers" style="opacity: 1;"><g class="legendfill"/><g class="legendlines"/><g class="legendsymbols"><g class="legendpoints"><path class="legendpie" d="M6,6H-6V-6H6Z" transform="translate(20,0)" style="stroke-width: 0; fill: rgb(253, 174, 107); fill-opacity: 1; stroke: rgb(68, 68, 68); stroke-opacity: 1;"/></g></g></g><rect class="legendtoggle" x="0" y="-9.5" width="74.703125" height="19" style="fill: rgb(0, 0, 0); fill-opacity: 0;"/></g><g class="traces" transform="translate(0,90.5)" style="opacity: 1;"><text class="legendtext" text-anchor="start" x="40" y="4.680000000000001" style="font-family: 'Open Sans', verdana, arial, sans-serif; font-size: 12px; fill: rgb(42, 63, 95); fill-opacity: 1; white-space: pre;">go</text><g class="layers" style="opacity: 1;"><g class="legendfill"/><g class="legendlines"/><g class="legendsymbols"><g class="legendpoints"><path class="legendpie" d="M6,6H-6V-6H6Z" transform="translate(20,0)" style="stroke-width: 0; fill: rgb(253, 141, 60); fill-opacity: 1; stroke: rgb(68, 68, 68); stroke-opacity: 1;"/></g></g></g><rect class="legendtoggle" x="0" y="-9.5" width="74.703125" height="19" style="fill: rgb(0, 0, 0); fill-opacity: 0;"/></g><g class="traces" transform="translate(0,109.5)" style="opacity: 1;"><text class="legendtext" text-anchor="start" x="40" y="4.680000000000001" style="font-family: 'Open Sans', verdana, arial, sans-serif; font-size: 12px; fill: rgb(42, 63, 95); fill-opacity: 1; white-space: pre;">take</text><g class="layers" style="opacity: 1;"><g class="legendfill"/><g class="legendlines"/><g class="legendsymbols"><g class="legendpoints"><path class="legendpie" d="M6,6H-6V-6H6Z" transform="translate(20,0)" style="stroke-width: 0; fill: rgb(241, 105, 19); fill-opacity: 1; stroke: rgb(68, 68, 68); stroke-opacity: 1;"/></g></g></g><rect class="legendtoggle" x="0" y="-9.5" width="74.703125" height="19" style="fill: rgb(0, 0, 0); fill-opacity: 0;"/></g><g class="traces" transform="translate(0,128.5)" style="opacity: 1;"><text class="legendtext" text-anchor="start" x="40" y="4.680000000000001" style="font-family: 'Open Sans', verdana, arial, sans-serif; font-size: 12px; fill: rgb(42, 63, 95); fill-opacity: 1; white-space: pre;">then</text><g class="layers" style="opacity: 1;"><g class="legendfill"/><g class="legendlines"/><g class="legendsymbols"><g class="legendpoints"><path class="legendpie" d="M6,6H-6V-6H6Z" transform="translate(20,0)" style="stroke-width: 0; fill: rgb(217, 72, 1); fill-opacity: 1; stroke: rgb(68, 68, 68); stroke-opacity: 1;"/></g></g></g><rect class="legendtoggle" x="0" y="-9.5" width="74.703125" height="19" style="fill: rgb(0, 0, 0); fill-opacity: 0;"/></g><g class="traces" transform="translate(0,147.5)" style="opacity: 1;"><text class="legendtext" text-anchor="start" x="40" y="4.680000000000001" style="font-family: 'Open Sans', verdana, arial, sans-serif; font-size: 12px; fill: rgb(42, 63, 95); fill-opacity: 1; white-space: pre;">tell</text><g class="layers" style="opacity: 1;"><g class="legendfill"/><g class="legendlines"/><g class="legendsymbols"><g class="legendpoints"><path class="legendpie" d="M6,6H-6V-6H6Z" transform="translate(20,0)" style="stroke-width: 0; fill: rgb(166, 54, 3); fill-opacity: 1; stroke: rgb(68, 68, 68); stroke-opacity: 1;"/></g></g></g><rect class="legendtoggle" x="0" y="-9.5" width="74.703125" height="19" style="fill: rgb(0, 0, 0); fill-opacity: 0;"/></g><g class="traces" transform="translate(0,166.5)" style="opacity: 1;"><text class="legendtext" text-anchor="start" x="40" y="4.680000000000001" style="font-family: 'Open Sans', verdana, arial, sans-serif; font-size: 12px; fill: rgb(42, 63, 95); fill-opacity: 1; white-space: pre;">get</text><g class="layers" style="opacity: 1;"><g class="legendfill"/><g class="legendlines"/><g class="legendsymbols"><g class="legendpoints"><path class="legendpie" d="M6,6H-6V-6H6Z" transform="translate(20,0)" style="stroke-width: 0; fill: rgb(127, 39, 4); fill-opacity: 1; stroke: rgb(68, 68, 68); stroke-opacity: 1;"/></g></g></g><rect class="legendtoggle" x="0" y="-9.5" width="74.703125" height="19" style="fill: rgb(0, 0, 0); fill-opacity: 0;"/></g><g class="traces" transform="translate(0,185.5)" style="opacity: 1;"><text class="legendtext" text-anchor="start" x="40" y="4.680000000000001" style="font-family: 'Open Sans', verdana, arial, sans-serif; font-size: 12px; fill: rgb(42, 63, 95); fill-opacity: 1; white-space: pre;">see</text><g class="layers" style="opacity: 1;"><g class="legendfill"/><g class="legendlines"/><g class="legendsymbols"><g class="legendpoints"><path class="legendpie" d="M6,6H-6V-6H6Z" transform="translate(20,0)" style="stroke-width: 0; fill: rgb(255, 245, 235); fill-opacity: 1; stroke: rgb(68, 68, 68); stroke-opacity: 1;"/></g></g></g><rect class="legendtoggle" x="0" y="-9.5" width="74.703125" height="19" style="fill: rgb(0, 0, 0); fill-opacity: 0;"/></g><g class="traces" transform="translate(0,204.5)" style="opacity: 1;"><text class="legendtext" text-anchor="start" x="40" y="4.680000000000001" style="font-family: 'Open Sans', verdana, arial, sans-serif; font-size: 12px; fill: rgb(42, 63, 95); fill-opacity: 1; white-space: pre;">leave</text><g class="layers" style="opacity: 1;"><g class="legendfill"/><g class="legendlines"/><g class="legendsymbols"><g class="legendpoints"><path class="legendpie" d="M6,6H-6V-6H6Z" transform="translate(20,0)" style="stroke-width: 0; fill: rgb(254, 230, 206); fill-opacity: 1; stroke: rgb(68, 68, 68); stroke-opacity: 1;"/></g></g></g><rect class="legendtoggle" x="0" y="-9.5" width="74.703125" height="19" style="fill: rgb(0, 0, 0); fill-opacity: 0;"/></g><g class="traces" transform="translate(0,223.5)" style="opacity: 1;"><text class="legendtext" text-anchor="start" x="40" y="4.680000000000001" style="font-family: 'Open Sans', verdana, arial, sans-serif; font-size: 12px; fill: rgb(42, 63, 95); fill-opacity: 1; white-space: pre;">man</text><g class="layers" style="opacity: 1;"><g class="legendfill"/><g class="legendlines"/><g class="legendsymbols"><g class="legendpoints"><path class="legendpie" d="M6,6H-6V-6H6Z" transform="translate(20,0)" style="stroke-width: 0; fill: rgb(253, 208, 162); fill-opacity: 1; stroke: rgb(68, 68, 68); stroke-opacity: 1;"/></g></g></g><rect class="legendtoggle" x="0" y="-9.5" width="74.703125" height="19" style="fill: rgb(0, 0, 0); fill-opacity: 0;"/></g><g class="traces" transform="translate(0,242.5)" style="opacity: 1;"><text class="legendtext" text-anchor="start" x="40" y="4.680000000000001" style="font-family: 'Open Sans', verdana, arial, sans-serif; font-size: 12px; fill: rgb(42, 63, 95); fill-opacity: 1; white-space: pre;">house</text><g class="layers" style="opacity: 1;"><g class="legendfill"/><g class="legendlines"/><g class="legendsymbols"><g class="legendpoints"><path class="legendpie" d="M6,6H-6V-6H6Z" transform="translate(20,0)" style="stroke-width: 0; fill: rgb(253, 174, 107); fill-opacity: 1; stroke: rgb(68, 68, 68); stroke-opacity: 1;"/></g></g></g><rect class="legendtoggle" x="0" y="-9.5" width="74.703125" height="19" style="fill: rgb(0, 0, 0); fill-opacity: 0;"/></g><g class="traces" transform="translate(0,261.5)" style="opacity: 1;"><text class="legendtext" text-anchor="start" x="40" y="4.680000000000001" style="font-family: 'Open Sans', verdana, arial, sans-serif; font-size: 12px; fill: rgb(42, 63, 95); fill-opacity: 1; white-space: pre;">Alex</text><g class="layers" style="opacity: 1;"><g class="legendfill"/><g class="legendlines"/><g class="legendsymbols"><g class="legendpoints"><path class="legendpie" d="M6,6H-6V-6H6Z" transform="translate(20,0)" style="stroke-width: 0; fill: rgb(253, 141, 60); fill-opacity: 1; stroke: rgb(68, 68, 68); stroke-opacity: 1;"/></g></g></g><rect class="legendtoggle" x="0" y="-9.5" width="74.703125" height="19" style="fill: rgb(0, 0, 0); fill-opacity: 0;"/></g><g class="traces" transform="translate(0,280.5)" style="opacity: 1;"><text class="legendtext" text-anchor="start" x="40" y="4.680000000000001" style="font-family: 'Open Sans', verdana, arial, sans-serif; font-size: 12px; fill: rgb(42, 63, 95); fill-opacity: 1; white-space: pre;">do</text><g class="layers" style="opacity: 1;"><g class="legendfill"/><g class="legendlines"/><g class="legendsymbols"><g class="legendpoints"><path class="legendpie" d="M6,6H-6V-6H6Z" transform="translate(20,0)" style="stroke-width: 0; fill: rgb(241, 105, 19); fill-opacity: 1; stroke: rgb(68, 68, 68); stroke-opacity: 1;"/></g></g></g><rect class="legendtoggle" x="0" y="-9.5" width="74.703125" height="19" style="fill: rgb(0, 0, 0); fill-opacity: 0;"/></g><g class="traces" transform="translate(0,299.5)" style="opacity: 1;"><text class="legendtext" text-anchor="start" x="40" y="4.680000000000001" style="font-family: 'Open Sans', verdana, arial, sans-serif; font-size: 12px; fill: rgb(42, 63, 95); fill-opacity: 1; white-space: pre;">car</text><g class="layers" style="opacity: 1;"><g class="legendfill"/><g class="legendlines"/><g class="legendsymbols"><g class="legendpoints"><path class="legendpie" d="M6,6H-6V-6H6Z" transform="translate(20,0)" style="stroke-width: 0; fill: rgb(217, 72, 1); fill-opacity: 1; stroke: rgb(68, 68, 68); stroke-opacity: 1;"/></g></g></g><rect class="legendtoggle" x="0" y="-9.5" width="74.703125" height="19" style="fill: rgb(0, 0, 0); fill-opacity: 0;"/></g><g class="traces" transform="translate(0,318.5)" style="opacity: 1;"><text class="legendtext" text-anchor="start" x="40" y="4.680000000000001" style="font-family: 'Open Sans', verdana, arial, sans-serif; font-size: 12px; fill: rgb(42, 63, 95); fill-opacity: 1; white-space: pre;">attack</text><g class="layers" style="opacity: 1;"><g class="legendfill"/><g class="legendlines"/><g class="legendsymbols"><g class="legendpoints"><path class="legendpie" d="M6,6H-6V-6H6Z" transform="translate(20,0)" style="stroke-width: 0; fill: rgb(166, 54, 3); fill-opacity: 1; stroke: rgb(68, 68, 68); stroke-opacity: 1;"/></g></g></g><rect class="legendtoggle" x="0" y="-9.5" width="74.703125" height="19" style="fill: rgb(0, 0, 0); fill-opacity: 0;"/></g><g class="traces" transform="translate(0,337.5)" style="opacity: 1;"><text class="legendtext" text-anchor="start" x="40" y="4.680000000000001" style="font-family: 'Open Sans', verdana, arial, sans-serif; font-size: 12px; fill: rgb(42, 63, 95); fill-opacity: 1; white-space: pre;">back</text><g class="layers" style="opacity: 1;"><g class="legendfill"/><g class="legendlines"/><g class="legendsymbols"><g class="legendpoints"><path class="legendpie" d="M6,6H-6V-6H6Z" transform="translate(20,0)" style="stroke-width: 0; fill: rgb(127, 39, 4); fill-opacity: 1; stroke: rgb(68, 68, 68); stroke-opacity: 1;"/></g></g></g><rect class="legendtoggle" x="0" y="-9.5" width="74.703125" height="19" style="fill: rgb(0, 0, 0); fill-opacity: 0;"/></g><g class="traces" transform="translate(0,356.5)" style="opacity: 1;"><text class="legendtext" text-anchor="start" x="40" y="4.680000000000001" style="font-family: 'Open Sans', verdana, arial, sans-serif; font-size: 12px; fill: rgb(42, 63, 95); fill-opacity: 1; white-space: pre;">begin</text><g class="layers" style="opacity: 1;"><g class="legendfill"/><g class="legendlines"/><g class="legendsymbols"><g class="legendpoints"><path class="legendpie" d="M6,6H-6V-6H6Z" transform="translate(20,0)" style="stroke-width: 0; fill: rgb(255, 245, 235); fill-opacity: 1; stroke: rgb(68, 68, 68); stroke-opacity: 1;"/></g></g></g><rect class="legendtoggle" x="0" y="-9.5" width="74.703125" height="19" style="fill: rgb(0, 0, 0); fill-opacity: 0;"/></g><g class="traces" transform="translate(0,375.5)" style="opacity: 1;"><text class="legendtext" text-anchor="start" x="40" y="4.680000000000001" style="font-family: 'Open Sans', verdana, arial, sans-serif; font-size: 12px; fill: rgb(42, 63, 95); fill-opacity: 1; white-space: pre;">killer</text><g class="layers" style="opacity: 1;"><g class="legendfill"/><g class="legendlines"/><g class="legendsymbols"><g class="legendpoints"><path class="legendpie" d="M6,6H-6V-6H6Z" transform="translate(20,0)" style="stroke-width: 0; fill: rgb(254, 230, 206); fill-opacity: 1; stroke: rgb(68, 68, 68); stroke-opacity: 1;"/></g></g></g><rect class="legendtoggle" x="0" y="-9.5" width="74.703125" height="19" style="fill: rgb(0, 0, 0); fill-opacity: 0;"/></g></g></g><rect class="scrollbar" rx="20" ry="3" width="0" height="0" style="fill: rgb(128, 139, 164); fill-opacity: 1;" x="0" y="0"/></g><g class="g-gtitle"><text class="gtitle" x="35" y="50" text-anchor="start" dy="0em" style="font-family: 'Open Sans', verdana, arial, sans-serif; font-size: 17px; fill: rgb(42, 63, 95); opacity: 1; font-weight: normal; white-space: pre;">Low rating topic 1 of genre: Thriller</text></g></g></svg>