<svg class="main-svg" xmlns="http://www.w3.org/2000/svg" xmlns:xlink="http://www.w3.org/1999/xlink" width="700" height="500" style="" viewBox="0 0 700 500"><rect x="0" y="0" width="700" height="500" style="fill: rgb(0, 0, 0); fill-opacity: 0;"/><defs id="defs-05d9a8"><g class="clips"/><g class="gradients"/><g class="patterns"/></defs><g class="bglayer"/><g class="layer-below"><g class="imagelayer"/><g class="shapelayer"/></g><g class="cartesianlayer"/><g class="polarlayer"/><g class="smithlayer"/><g class="ternarylayer"/><g class="geolayer"/><g class="funnelarealayer"/><g class="pielayer"><g class="trace" stroke-linejoin="round" style="opacity: 1;"><g class="slice"><path class="surface" d="M352.4807451506321,225.60465577787562a48,48 0 0 0 -33.48074515063211,-13.604655777875632l0,-112a160,160 0 0 1 111.60248383544038,45.348852592918774Z" style="pointer-events: none; stroke-width: 0; fill: rgb(255, 245, 235); fill-opacity: 1; stroke: rgb(68, 68, 68); stroke-opacity: 1;"/><g class="slicetext"><text data-notex="1" class="slicetext" transform="translate(362.69650813320254,149.00539933551093)" text-anchor="middle" x="0" y="0" style="font-family: 'Open Sans', verdana, arial, sans-serif; font-size: 12px; fill: rgb(68, 68, 68); fill-opacity: 1; white-space: pre;"><tspan class="line" dy="0em" x="0" y="0">Karl</tspan><tspan class="line" dy="1.3em" x="0" y="0">12.3%</tspan></text></g></g><g class="slice"><path class="surface" d="M319,212a48,48 0 0 0 -32.97581582884279,13.120269920450342l-76.94357026729985,-81.38603685228253a160,160 0 0 1 109.91938609614265,-43.73423306816781Z" style="pointer-events: none; stroke-width: 0; fill: rgb(254, 230, 206); fill-opacity: 1; stroke: rgb(68, 68, 68); stroke-opacity: 1;"/><g class="slicetext"><text data-notex="1" class="slicetext" transform="translate(275.7523941695212,148.1560747366603)" text-anchor="middle" x="0" y="0" style="font-family: 'Open Sans', verdana, arial, sans-serif; font-size: 12px; fill: rgb(68, 68, 68); fill-opacity: 1; white-space: pre;"><tspan class="line" dy="0em" x="0" y="0">Stella</tspan><tspan class="line" dy="1.3em" x="0" y="0">12.1%</tspan></text></g></g><g class="slice"><path class="surface" d="M286.02418417115723,225.12026992045034a48,48 0 0 0 -13.979827259731142,24.92143794994938l-109.56316720667252,-23.236014969067313a160,160 0 0 1 46.59942419910381,-83.0714598331646Z" style="pointer-events: none; stroke-width: 0; fill: rgb(253, 208, 162); fill-opacity: 1; stroke: rgb(68, 68, 68); stroke-opacity: 1;"/><g class="slicetext"><text data-notex="1" class="slicetext" transform="translate(211.40178397010186,196.3725198357617)" text-anchor="middle" x="0" y="0" style="font-family: 'Open Sans', verdana, arial, sans-serif; font-size: 12px; fill: rgb(68, 68, 68); fill-opacity: 1; white-space: pre;"><tspan class="line" dy="0em" x="0" y="0">Edgar</tspan><tspan class="line" dy="1.3em" x="0" y="0">9.62%</tspan></text></g></g><g class="slice"><path class="surface" d="M272.04435691142606,250.04170787039973a48,48 0 0 0 2.6001620149142153,28.304716814650345l-103.496122505206,42.80832426511682a160,160 0 0 1 -8.667206716380718,-94.34905604883448Z" style="pointer-events: none; stroke-width: 0; fill: rgb(253, 174, 107); fill-opacity: 1; stroke: rgb(68, 68, 68); stroke-opacity: 1;"/><g class="slicetext"><text data-notex="1" class="slicetext" transform="translate(195.59209131628785,267.9881800062283)" text-anchor="middle" x="0" y="0" style="font-family: 'Open Sans', verdana, arial, sans-serif; font-size: 12px; fill: rgb(68, 68, 68); fill-opacity: 1; white-space: pre;"><tspan class="line" dy="0em" x="0" y="0">Tommy</tspan><tspan class="line" dy="1.3em" x="0" y="0">9.57%</tspan></text></g></g><g class="slice"><path class="surface" d="M274.6445189263403,278.34642468505007a48,48 0 0 0 15.131114129581697,19.73160542048296l-68.19018953618205,88.8487369129104a160,160 0 0 1 -50.43704709860566,-65.77201806827654Z" style="pointer-events: none; stroke-width: 0; fill: rgb(253, 141, 60); fill-opacity: 1; stroke: rgb(68, 68, 68); stroke-opacity: 1;"/><g class="slicetext"><text data-notex="1" class="slicetext" transform="translate(218.15445357779151,334.0283748564191)" text-anchor="middle" x="0" y="0" style="font-family: 'Open Sans', verdana, arial, sans-serif; font-size: 12px; fill: rgb(68, 68, 68); fill-opacity: 1; white-space: pre;"><tspan class="line" dy="0em" x="0" y="0">Claudia</tspan><tspan class="line" dy="1.3em" x="0" y="0">8.34%</tspan></text></g></g><g class="slice"><path class="surface" d="M289.77563305592196,298.078030105533a48,48 0 0 0 22.90467012191958,9.504124449257787l-14.745959251703034,111.0250272945119a160,160 0 0 1 -76.3489004063986,-31.68041483085929Z" style="pointer-events: none; stroke-width: 0; fill: rgb(241, 105, 19); fill-opacity: 1; stroke: rgb(68, 68, 68); stroke-opacity: 1;"/><g class="slicetext"><text data-notex="1" class="slicetext" transform="translate(270.2202492639428,374.1401596067799)" text-anchor="middle" x="0" y="0" style="font-family: 'Open Sans', verdana, arial, sans-serif; font-size: 12px; fill: rgb(68, 68, 68); fill-opacity: 1; white-space: pre;"><tspan class="line" dy="0em" x="0" y="0">elevator</tspan><tspan class="line" dy="1.3em" x="0" y="0">8.32%</tspan></text></g></g><g class="slice"><path class="surface" d="M312.68030317784155,307.5821545547908a48,48 0 0 0 17.715406565707493,-0.9545039658882956l26.589989401614453,108.79785137410587a160,160 0 0 1 -59.051355219024984,3.1816798862943187Z" style="pointer-events: none; stroke-width: 0; fill: rgb(217, 72, 1); fill-opacity: 1; stroke: rgb(68, 68, 68); stroke-opacity: 1;"/><g class="slicetext"><text data-notex="1" class="slicetext" transform="translate(329.3755039916676,391.14400495124204)rotate(86.91589244443128)" text-anchor="middle" x="0" y="0" style="font-family: 'Open Sans', verdana, arial, sans-serif; font-size: 12px; fill: rgb(255, 255, 255); fill-opacity: 1; white-space: pre;"><tspan class="line" dy="0em" x="0" y="0">Aoyama</tspan><tspan class="line" dy="1.3em" x="0" y="0">5.92%</tspan></text></g></g><g class="slice"><path class="surface" d="M330.39570974354905,306.6276505889025a48,48 0 0 0 12.821539810263236,-5.184619521564093l56.506915625562,96.70040582378965a160,160 0 0 1 -42.73846603421079,17.28206507188031Z" style="pointer-events: none; stroke-width: 0; fill: rgb(166, 54, 3); fill-opacity: 1; stroke: rgb(68, 68, 68); stroke-opacity: 1;"/><g class="slicetext"><text data-notex="1" class="slicetext" transform="translate(374.7007943226973,388.9324570794837)rotate(67.98317116811768)" text-anchor="middle" x="0" y="0" style="font-family: 'Open Sans', verdana, arial, sans-serif; font-size: 12px; fill: rgb(255, 255, 255); fill-opacity: 1; white-space: pre;"><tspan class="line" dy="0em" x="0" y="0">Asami</tspan><tspan class="line" dy="1.3em" x="0" y="0">4.6%</tspan></text></g></g><g class="slice"><path class="surface" d="M343.2172495538123,301.44303106733844a48,48 0 0 0 10.443295442904155,-8.236907828836237l80.87460499233836,77.48095422317176a160,160 0 0 1 -34.81098480968052,27.456359429454125Z" style="pointer-events: none; stroke-width: 0; fill: rgb(127, 39, 4); fill-opacity: 1; stroke: rgb(68, 68, 68); stroke-opacity: 1;"/><g class="slicetext"><text data-notex="1" class="slicetext" transform="translate(408.1545701846055,367.76789774525633)scale(0.9872269209692824)rotate(51.73620600245283)" text-anchor="middle" x="0" y="0" style="font-family: 'Open Sans', verdana, arial, sans-serif; font-size: 12px; fill: rgb(255, 255, 255); fill-opacity: 1; white-space: pre;"><tspan class="line" dy="0em" x="0" y="0">Joshua</tspan><tspan class="line" dy="1.3em" x="0" y="0">4.42%</tspan></text></g></g><g class="slice"><path class="surface" d="M353.66054499671645,293.2061232385022a48,48 0 0 0 7.243873985524161,-9.796303295563005l97.77697762522807,54.62291320019143a160,160 0 0 1 -24.14624661841387,32.65434431854335Z" style="pointer-events: none; stroke-width: 0; fill: rgb(255, 245, 235); fill-opacity: 1; stroke: rgb(68, 68, 68); stroke-opacity: 1;"/><g class="slicetext"><text data-notex="1" class="slicetext" transform="translate(434.3365709325425,341.4561479873896)scale(0.9317317882204416)rotate(36.48106407423228)" text-anchor="middle" x="0" y="0" style="font-family: 'Open Sans', verdana, arial, sans-serif; font-size: 12px; fill: rgb(68, 68, 68); fill-opacity: 1; white-space: pre;"><tspan class="line" dy="0em" x="0" y="0">Cleave</tspan><tspan class="line" dy="1.3em" x="0" y="0">4.05%</tspan></text></g></g><g class="slice"><path class="surface" d="M360.9044189822406,283.4098199429392a48,48 0 0 0 2.976680906496648,-6.389629791910053l104.72256640705359,39.71377701906797a160,160 0 0 1 -9.92226968832216,21.29876597303351Z" style="pointer-events: none; stroke-width: 0; fill: rgb(254, 230, 206); fill-opacity: 1; stroke: rgb(68, 68, 68); stroke-opacity: 1;"/><g class="slicetext"><text data-notex="1" class="slicetext" transform="translate(446.26768404314447,317.3957091502854)scale(0.5193447063049252)rotate(24.978987256237247)" text-anchor="middle" x="0" y="0" style="font-family: 'Open Sans', verdana, arial, sans-serif; font-size: 12px; fill: rgb(68, 68, 68); fill-opacity: 1; white-space: pre;"><tspan class="line" dy="0em" x="0" y="0">grandmother</tspan><tspan class="line" dy="1.3em" x="0" y="0">2.34%</tspan></text></g></g><g class="slice"><path class="surface" d="M363.88109988873725,277.0201901510291a48,48 0 0 0 1.904245094467285,-6.29025563107338l109.16580496081059,25.03651387989675a160,160 0 0 1 -6.347483648224284,20.967518770244602Z" style="pointer-events: none; stroke-width: 0; fill: rgb(253, 208, 162); fill-opacity: 1; stroke: rgb(68, 68, 68); stroke-opacity: 1;"/><g class="slicetext"><text data-notex="1" class="slicetext" transform="translate(462.8560255551783,301.59364890326304)scale(0.5664375975194048)rotate(16.84260514963438)" text-anchor="middle" x="0" y="0" style="font-family: 'Open Sans', verdana, arial, sans-serif; font-size: 12px; fill: rgb(68, 68, 68); fill-opacity: 1; white-space: pre;"><tspan class="line" dy="0em" x="0" y="0">Dr.</tspan><tspan class="line" dy="1.3em" x="0" y="0">2.18%</tspan></text></g></g><g class="slice"><path class="surface" d="M365.78534498320454,270.72993451995575a48,48 0 0 0 1.0148631834511577,-6.35499460901045l111.53381905552995,10.208193125539031a160,160 0 0 1 -3.3828772781705254,21.183315363368166Z" style="pointer-events: none; stroke-width: 0; fill: rgb(253, 174, 107); fill-opacity: 1; stroke: rgb(68, 68, 68); stroke-opacity: 1;"/><g class="slicetext"><text data-notex="1" class="slicetext" transform="translate(465.19417398193616,281.5442267483567)scale(0.538554375060282)rotate(9.0732574876061)" text-anchor="middle" x="0" y="0" style="font-family: 'Open Sans', verdana, arial, sans-serif; font-size: 12px; fill: rgb(68, 68, 68); fill-opacity: 1; white-space: pre;"><tspan class="line" dy="0em" x="0" y="0">London</tspan><tspan class="line" dy="1.3em" x="0" y="0">2.14%</tspan></text></g></g><g class="slice"><path class="surface" d="M366.8002081666557,264.3749399109453a48,48 0 0 0 0.15764124607377425,-6.386078818620084l111.9016486297021,-4.692657451241165a160,160 0 0 1 -0.5254708202459142,21.286929395400282Z" style="pointer-events: none; stroke-width: 0; fill: rgb(253, 141, 60); fill-opacity: 1; stroke: rgb(68, 68, 68); stroke-opacity: 1;"/><g class="slicetext"><text data-notex="1" class="slicetext" transform="translate(468.9959241246428,261.87634512336257)scale(0.5524785599694849)rotate(1.4140671294330218)" text-anchor="middle" x="0" y="0" style="font-family: 'Open Sans', verdana, arial, sans-serif; font-size: 12px; fill: rgb(68, 68, 68); fill-opacity: 1; white-space: pre;"><tspan class="line" dy="0em" x="0" y="0">son</tspan><tspan class="line" dy="1.3em" x="0" y="0">2.12%</tspan></text></g></g><g class="slice"><path class="surface" d="M366.95784941272944,257.98886109232524a48,48 0 0 0 -0.6817639892360204,-6.2937841522066424l110.31086598815138,-19.37815380639a160,160 0 0 1 2.272546630786735,20.979280507355476Z" style="pointer-events: none; stroke-width: 0; fill: rgb(241, 105, 19); fill-opacity: 1; stroke: rgb(68, 68, 68); stroke-opacity: 1;"/><g class="slicetext"><text data-notex="1" class="slicetext" transform="translate(470.29739430698135,243.61095445772816)scale(0.5534441302613671)rotate(83.8176333514931)" text-anchor="middle" x="0" y="0" style="font-family: 'Open Sans', verdana, arial, sans-serif; font-size: 12px; fill: rgb(68, 68, 68); fill-opacity: 1; white-space: pre;"><tspan class="line" dy="0em" x="0" y="0">Smith</tspan><tspan class="line" dy="1.3em" x="0" y="0">2.1%</tspan></text></g></g><g class="slice"><path class="surface" d="M366.27608542349344,251.69507694011858a48,48 0 0 0 -1.47996274083782,-6.072668784205481l106.85761959286313,-33.54771430286945a160,160 0 0 1 4.933209136126067,20.24222928068494Z" style="pointer-events: none; stroke-width: 0; fill: rgb(217, 72, 1); fill-opacity: 1; stroke: rgb(68, 68, 68); stroke-opacity: 1;"/><g class="slicetext"><text data-notex="1" class="slicetext" transform="translate(464.4966730738884,222.69767275416402)scale(0.5419837381869187)rotate(-13.696488061662706)" text-anchor="middle" x="0" y="0" style="font-family: 'Open Sans', verdana, arial, sans-serif; font-size: 12px; fill: rgb(255, 255, 255); fill-opacity: 1; white-space: pre;"><tspan class="line" dy="0em" x="0" y="0">Brad</tspan><tspan class="line" dy="1.3em" x="0" y="0">2.07%</tspan></text></g></g><g class="slice"><path class="surface" d="M364.7961226826556,245.6224081559131a48,48 0 0 0 -2.195017438130716,-5.69586379902203l101.7359122372248,-46.83806316725419a160,160 0 0 1 7.316724793769055,18.986212663406768Z" style="pointer-events: none; stroke-width: 0; fill: rgb(166, 54, 3); fill-opacity: 1; stroke: rgb(68, 68, 68); stroke-opacity: 1;"/><g class="slicetext"><text data-notex="1" class="slicetext" transform="translate(457.3717007933482,204.83544212028897)scale(0.5195968202206592)rotate(-21.07518716304554)" text-anchor="middle" x="0" y="0" style="font-family: 'Open Sans', verdana, arial, sans-serif; font-size: 12px; fill: rgb(255, 255, 255); fill-opacity: 1; white-space: pre;"><tspan class="line" dy="0em" x="0" y="0">asylum</tspan><tspan class="line" dy="1.3em" x="0" y="0">2.03%</tspan></text></g></g><g class="slice"><path class="surface" d="M362.6011052445249,239.92654435689107a48,48 0 0 0 -2.879624772348825,-5.338372865563578l95.01678776841086,-59.29426652023587a160,160 0 0 1 9.59874924116275,17.79457621854526Z" style="pointer-events: none; stroke-width: 0; fill: rgb(127, 39, 4); fill-opacity: 1; stroke: rgb(68, 68, 68); stroke-opacity: 1;"/><g class="slicetext"><text data-notex="1" class="slicetext" transform="translate(450.59029027237835,187.03578815374084)scale(0.5277976889620551)rotate(-28.34330842291223)" text-anchor="middle" x="0" y="0" style="font-family: 'Open Sans', verdana, arial, sans-serif; font-size: 12px; fill: rgb(255, 255, 255); fill-opacity: 1; white-space: pre;"><tspan class="line" dy="0em" x="0" y="0">flash</tspan><tspan class="line" dy="1.3em" x="0" y="0">2.01%</tspan></text></g></g><g class="slice"><path class="surface" d="M359.7214804721761,234.58817149132747a48,48 0 0 0 -3.3495901234625762,-4.710286486190214l87.20107748033152,-70.28493498801303a160,160 0 0 1 11.16530041154192,15.700954953967383Z" style="pointer-events: none; stroke-width: 0; fill: rgb(255, 245, 235); fill-opacity: 1; stroke: rgb(68, 68, 68); stroke-opacity: 1;"/><g class="slicetext"><text data-notex="1" class="slicetext" transform="translate(440.97915478283323,171.20730969100364)scale(0.5056833013101768)rotate(-35.41748398487255)" text-anchor="middle" x="0" y="0" style="font-family: 'Open Sans', verdana, arial, sans-serif; font-size: 12px; fill: rgb(68, 68, 68); fill-opacity: 1; white-space: pre;"><tspan class="line" dy="0em" x="0" y="0">not</tspan><tspan class="line" dy="1.3em" x="0" y="0">1.92%</tspan></text></g></g><g class="slice"><path class="surface" d="M356.3718903487135,229.87788500513727a48,48 0 0 0 -3.891145198081449,-4.273229227261681l78.12173868480814,-80.25580318495696a160,160 0 0 1 12.97048399360483,14.244097424205606Z" style="pointer-events: none; stroke-width: 0; fill: rgb(254, 230, 206); fill-opacity: 1; stroke: rgb(68, 68, 68); stroke-opacity: 1;"/><g class="slicetext"><text data-notex="1" class="slicetext" transform="translate(428.4374358086096,158.13001483126072)scale(0.496192743541892)rotate(-42.32057349639382)" text-anchor="middle" x="0" y="0" style="font-family: 'Open Sans', verdana, arial, sans-serif; font-size: 12px; fill: rgb(68, 68, 68); fill-opacity: 1; white-space: pre;"><tspan class="line" dy="0em" x="0" y="0">Charlie</tspan><tspan class="line" dy="1.3em" x="0" y="0">1.92%</tspan></text></g></g></g></g><g class="iciclelayer"/><g class="treemaplayer"/><g class="sunburstlayer"/><g class="glimages"/><defs id="topdefs-05d9a8"><g class="clips"/><clipPath id="legend05d9a8"><rect width="120" height="320" x="0" y="0"/></clipPath></defs><g class="layer-above"><g class="imagelayer"/><g class="shapelayer"/></g><g class="infolayer"><g class="legend" pointer-events="all" transform="translate(567.56,100)"><rect class="bg" shape-rendering="crispEdges" style="stroke: rgb(68, 68, 68); stroke-opacity: 1; fill: rgb(0, 0, 0); fill-opacity: 0; stroke-width: 0px;" width="120" height="320" x="0" y="0"/><g class="scrollbox" transform="" clip-path="url(#legend05d9a8)"><g class="groups"><g class="traces" transform="translate(0,14.5)" style="opacity: 1;"><text class="legendtext" text-anchor="start" x="40" y="4.680000000000001" style="font-family: 'Open Sans', verdana, arial, sans-serif; font-size: 12px; fill: rgb(42, 63, 95); fill-opacity: 1; white-space: pre;">Karl</text><g class="layers" style="opacity: 1;"><g class="legendfill"/><g class="legendlines"/><g class="legendsymbols"><g class="legendpoints"><path class="legendpie" d="M6,6H-6V-6H6Z" transform="translate(20,0)" style="stroke-width: 0; fill: rgb(255, 245, 235); fill-opacity: 1; stroke: rgb(68, 68, 68); stroke-opacity: 1;"/></g></g></g><rect class="legendtoggle" x="0" y="-9.5" width="114.609375" height="19" style="fill: rgb(0, 0, 0); fill-opacity: 0;"/></g><g class="traces" transform="translate(0,33.5)" style="opacity: 1;"><text class="legendtext" text-anchor="start" x="40" y="4.680000000000001" style="font-family: 'Open Sans', verdana, arial, sans-serif; font-size: 12px; fill: rgb(42, 63, 95); fill-opacity: 1; white-space: pre;">Stella</text><g class="layers" style="opacity: 1;"><g class="legendfill"/><g class="legendlines"/><g class="legendsymbols"><g class="legendpoints"><path class="legendpie" d="M6,6H-6V-6H6Z" transform="translate(20,0)" style="stroke-width: 0; fill: rgb(254, 230, 206); fill-opacity: 1; stroke: rgb(68, 68, 68); stroke-opacity: 1;"/></g></g></g><rect class="legendtoggle" x="0" y="-9.5" width="114.609375" height="19" style="fill: rgb(0, 0, 0); fill-opacity: 0;"/></g><g class="traces" transform="translate(0,52.5)" style="opacity: 1;"><text class="legendtext" text-anchor="start" x="40" y="4.680000000000001" style="font-family: 'Open Sans', verdana, arial, sans-serif; font-size: 12px; fill: rgb(42, 63, 95); fill-opacity: 1; white-space: pre;">Edgar</text><g class="layers" style="opacity: 1;"><g class="legendfill"/><g class="legendlines"/><g class="legendsymbols"><g class="legendpoints"><path class="legendpie" d="M6,6H-6V-6H6Z" transform="translate(20,0)" style="stroke-width: 0; fill: rgb(253, 208, 162); fill-opacity: 1; stroke: rgb(68, 68, 68); stroke-opacity: 1;"/></g></g></g><rect class="legendtoggle" x="0" y="-9.5" width="114.609375" height="19" style="fill: rgb(0, 0, 0); fill-opacity: 0;"/></g><g class="traces" transform="translate(0,71.5)" style="opacity: 1;"><text class="legendtext" text-anchor="start" x="40" y="4.680000000000001" style="font-family: 'Open Sans', verdana, arial, sans-serif; font-size: 12px; fill: rgb(42, 63, 95); fill-opacity: 1; white-space: pre;">Tommy</text><g class="layers" style="opacity: 1;"><g class="legendfill"/><g class="legendlines"/><g class="legendsymbols"><g class="legendpoints"><path class="legendpie" d="M6,6H-6V-6H6Z" transform="translate(20,0)" style="stroke-width: 0; fill: rgb(253, 174, 107); fill-opacity: 1; stroke: rgb(68, 68, 68); stroke-opacity: 1;"/></g></g></g><rect class="legendtoggle" x="0" y="-9.5" width="114.609375" height="19" style="fill: rgb(0, 0, 0); fill-opacity: 0;"/></g><g class="traces" transform="translate(0,90.5)" style="opacity: 1;"><text class="legendtext" text-anchor="start" x="40" y="4.680000000000001" style="font-family: 'Open Sans', verdana, arial, sans-serif; font-size: 12px; fill: rgb(42, 63, 95); fill-opacity: 1; white-space: pre;">Claudia</text><g class="layers" style="opacity: 1;"><g class="legendfill"/><g class="legendlines"/><g class="legendsymbols"><g class="legendpoints"><path class="legendpie" d="M6,6H-6V-6H6Z" transform="translate(20,0)" style="stroke-width: 0; fill: rgb(253, 141, 60); fill-opacity: 1; stroke: rgb(68, 68, 68); stroke-opacity: 1;"/></g></g></g><rect class="legendtoggle" x="0" y="-9.5" width="114.609375" height="19" style="fill: rgb(0, 0, 0); fill-opacity: 0;"/></g><g class="traces" transform="translate(0,109.5)" style="opacity: 1;"><text class="legendtext" text-anchor="start" x="40" y="4.680000000000001" style="font-family: 'Open Sans', verdana, arial, sans-serif; font-size: 12px; fill: rgb(42, 63, 95); fill-opacity: 1; white-space: pre;">elevator</text><g class="layers" style="opacity: 1;"><g class="legendfill"/><g class="legendlines"/><g class="legendsymbols"><g class="legendpoints"><path class="legendpie" d="M6,6H-6V-6H6Z" transform="translate(20,0)" style="stroke-width: 0; fill: rgb(241, 105, 19); fill-opacity: 1; stroke: rgb(68, 68, 68); stroke-opacity: 1;"/></g></g></g><rect class="legendtoggle" x="0" y="-9.5" width="114.609375" height="19" style="fill: rgb(0, 0, 0); fill-opacity: 0;"/></g><g class="traces" transform="translate(0,128.5)" style="opacity: 1;"><text class="legendtext" text-anchor="start" x="40" y="4.680000000000001" style="font-family: 'Open Sans', verdana, arial, sans-serif; font-size: 12px; fill: rgb(42, 63, 95); fill-opacity: 1; white-space: pre;">Aoyama</text><g class="layers" style="opacity: 1;"><g class="legendfill"/><g class="legendlines"/><g class="legendsymbols"><g class="legendpoints"><path class="legendpie" d="M6,6H-6V-6H6Z" transform="translate(20,0)" style="stroke-width: 0; fill: rgb(217, 72, 1); fill-opacity: 1; stroke: rgb(68, 68, 68); stroke-opacity: 1;"/></g></g></g><rect class="legendtoggle" x="0" y="-9.5" width="114.609375" height="19" style="fill: rgb(0, 0, 0); fill-opacity: 0;"/></g><g class="traces" transform="translate(0,147.5)" style="opacity: 1;"><text class="legendtext" text-anchor="start" x="40" y="4.680000000000001" style="font-family: 'Open Sans', verdana, arial, sans-serif; font-size: 12px; fill: rgb(42, 63, 95); fill-opacity: 1; white-space: pre;">Asami</text><g class="layers" style="opacity: 1;"><g class="legendfill"/><g class="legendlines"/><g class="legendsymbols"><g class="legendpoints"><path class="legendpie" d="M6,6H-6V-6H6Z" transform="translate(20,0)" style="stroke-width: 0; fill: rgb(166, 54, 3); fill-opacity: 1; stroke: rgb(68, 68, 68); stroke-opacity: 1;"/></g></g></g><rect class="legendtoggle" x="0" y="-9.5" width="114.609375" height="19" style="fill: rgb(0, 0, 0); fill-opacity: 0;"/></g><g class="traces" transform="translate(0,166.5)" style="opacity: 1;"><text class="legendtext" text-anchor="start" x="40" y="4.680000000000001" style="font-family: 'Open Sans', verdana, arial, sans-serif; font-size: 12px; fill: rgb(42, 63, 95); fill-opacity: 1; white-space: pre;">Joshua</text><g class="layers" style="opacity: 1;"><g class="legendfill"/><g class="legendlines"/><g class="legendsymbols"><g class="legendpoints"><path class="legendpie" d="M6,6H-6V-6H6Z" transform="translate(20,0)" style="stroke-width: 0; fill: rgb(127, 39, 4); fill-opacity: 1; stroke: rgb(68, 68, 68); stroke-opacity: 1;"/></g></g></g><rect class="legendtoggle" x="0" y="-9.5" width="114.609375" height="19" style="fill: rgb(0, 0, 0); fill-opacity: 0;"/></g><g class="traces" transform="translate(0,185.5)" style="opacity: 1;"><text class="legendtext" text-anchor="start" x="40" y="4.680000000000001" style="font-family: 'Open Sans', verdana, arial, sans-serif; font-size: 12px; fill: rgb(42, 63, 95); fill-opacity: 1; white-space: pre;">Cleave</text><g class="layers" style="opacity: 1;"><g class="legendfill"/><g class="legendlines"/><g class="legendsymbols"><g class="legendpoints"><path class="legendpie" d="M6,6H-6V-6H6Z" transform="translate(20,0)" style="stroke-width: 0; fill: rgb(255, 245, 235); fill-opacity: 1; stroke: rgb(68, 68, 68); stroke-opacity: 1;"/></g></g></g><rect class="legendtoggle" x="0" y="-9.5" width="114.609375" height="19" style="fill: rgb(0, 0, 0); fill-opacity: 0;"/></g><g class="traces" transform="translate(0,204.5)" style="opacity: 1;"><text class="legendtext" text-anchor="start" x="40" y="4.680000000000001" style="font-family: 'Open Sans', verdana, arial, sans-serif; font-size: 12px; fill: rgb(42, 63, 95); fill-opacity: 1; white-space: pre;">grandmother</text><g class="layers" style="opacity: 1;"><g class="legendfill"/><g class="legendlines"/><g class="legendsymbols"><g class="legendpoints"><path class="legendpie" d="M6,6H-6V-6H6Z" transform="translate(20,0)" style="stroke-width: 0; fill: rgb(254, 230, 206); fill-opacity: 1; stroke: rgb(68, 68, 68); stroke-opacity: 1;"/></g></g></g><rect class="legendtoggle" x="0" y="-9.5" width="114.609375" height="19" style="fill: rgb(0, 0, 0); fill-opacity: 0;"/></g><g class="traces" transform="translate(0,223.5)" style="opacity: 1;"><text class="legendtext" text-anchor="start" x="40" y="4.680000000000001" style="font-family: 'Open Sans', verdana, arial, sans-serif; font-size: 12px; fill: rgb(42, 63, 95); fill-opacity: 1; white-space: pre;">Dr.</text><g class="layers" style="opacity: 1;"><g class="legendfill"/><g class="legendlines"/><g class="legendsymbols"><g class="legendpoints"><path class="legendpie" d="M6,6H-6V-6H6Z" transform="translate(20,0)" style="stroke-width: 0; fill: rgb(253, 208, 162); fill-opacity: 1; stroke: rgb(68, 68, 68); stroke-opacity: 1;"/></g></g></g><rect class="legendtoggle" x="0" y="-9.5" width="114.609375" height="19" style="fill: rgb(0, 0, 0); fill-opacity: 0;"/></g><g class="traces" transform="translate(0,242.5)" style="opacity: 1;"><text class="legendtext" text-anchor="start" x="40" y="4.680000000000001" style="font-family: 'Open Sans', verdana, arial, sans-serif; font-size: 12px; fill: rgb(42, 63, 95); fill-opacity: 1; white-space: pre;">London</text><g class="layers" style="opacity: 1;"><g class="legendfill"/><g class="legendlines"/><g class="legendsymbols"><g class="legendpoints"><path class="legendpie" d="M6,6H-6V-6H6Z" transform="translate(20,0)" style="stroke-width: 0; fill: rgb(253, 174, 107); fill-opacity: 1; stroke: rgb(68, 68, 68); stroke-opacity: 1;"/></g></g></g><rect class="legendtoggle" x="0" y="-9.5" width="114.609375" height="19" style="fill: rgb(0, 0, 0); fill-opacity: 0;"/></g><g class="traces" transform="translate(0,261.5)" style="opacity: 1;"><text class="legendtext" text-anchor="start" x="40" y="4.680000000000001" style="font-family: 'Open Sans', verdana, arial, sans-serif; font-size: 12px; fill: rgb(42, 63, 95); fill-opacity: 1; white-space: pre;">son</text><g class="layers" style="opacity: 1;"><g class="legendfill"/><g class="legendlines"/><g class="legendsymbols"><g class="legendpoints"><path class="legendpie" d="M6,6H-6V-6H6Z" transform="translate(20,0)" style="stroke-width: 0; fill: rgb(253, 141, 60); fill-opacity: 1; stroke: rgb(68, 68, 68); stroke-opacity: 1;"/></g></g></g><rect class="legendtoggle" x="0" y="-9.5" width="114.609375" height="19" style="fill: rgb(0, 0, 0); fill-opacity: 0;"/></g><g class="traces" transform="translate(0,280.5)" style="opacity: 1;"><text class="legendtext" text-anchor="start" x="40" y="4.680000000000001" style="font-family: 'Open Sans', verdana, arial, sans-serif; font-size: 12px; fill: rgb(42, 63, 95); fill-opacity: 1; white-space: pre;">Smith</text><g class="layers" style="opacity: 1;"><g class="legendfill"/><g class="legendlines"/><g class="legendsymbols"><g class="legendpoints"><path class="legendpie" d="M6,6H-6V-6H6Z" transform="translate(20,0)" style="stroke-width: 0; fill: rgb(241, 105, 19); fill-opacity: 1; stroke: rgb(68, 68, 68); stroke-opacity: 1;"/></g></g></g><rect class="legendtoggle" x="0" y="-9.5" width="114.609375" height="19" style="fill: rgb(0, 0, 0); fill-opacity: 0;"/></g><g class="traces" transform="translate(0,299.5)" style="opacity: 1;"><text class="legendtext" text-anchor="start" x="40" y="4.680000000000001" style="font-family: 'Open Sans', verdana, arial, sans-serif; font-size: 12px; fill: rgb(42, 63, 95); fill-opacity: 1; white-space: pre;">Brad</text><g class="layers" style="opacity: 1;"><g class="legendfill"/><g class="legendlines"/><g class="legendsymbols"><g class="legendpoints"><path class="legendpie" d="M6,6H-6V-6H6Z" transform="translate(20,0)" style="stroke-width: 0; fill: rgb(217, 72, 1); fill-opacity: 1; stroke: rgb(68, 68, 68); stroke-opacity: 1;"/></g></g></g><rect class="legendtoggle" x="0" y="-9.5" width="114.609375" height="19" style="fill: rgb(0, 0, 0); fill-opacity: 0;"/></g><g class="traces" transform="translate(0,318.5)" style="opacity: 1;"><text class="legendtext" text-anchor="start" x="40" y="4.680000000000001" style="font-family: 'Open Sans', verdana, arial, sans-serif; font-size: 12px; fill: rgb(42, 63, 95); fill-opacity: 1; white-space: pre;">asylum</text><g class="layers" style="opacity: 1;"><g class="legendfill"/><g class="legendlines"/><g class="legendsymbols"><g class="legendpoints"><path class="legendpie" d="M6,6H-6V-6H6Z" transform="translate(20,0)" style="stroke-width: 0; fill: rgb(166, 54, 3); fill-opacity: 1; stroke: rgb(68, 68, 68); stroke-opacity: 1;"/></g></g></g><rect class="legendtoggle" x="0" y="-9.5" width="114.609375" height="19" style="fill: rgb(0, 0, 0); fill-opacity: 0;"/></g><g class="traces" transform="translate(0,337.5)" style="opacity: 1;"><text class="legendtext" text-anchor="start" x="40" y="4.680000000000001" style="font-family: 'Open Sans', verdana, arial, sans-serif; font-size: 12px; fill: rgb(42, 63, 95); fill-opacity: 1; white-space: pre;">flash</text><g class="layers" style="opacity: 1;"><g class="legendfill"/><g class="legendlines"/><g class="legendsymbols"><g class="legendpoints"><path class="legendpie" d="M6,6H-6V-6H6Z" transform="translate(20,0)" style="stroke-width: 0; fill: rgb(127, 39, 4); fill-opacity: 1; stroke: rgb(68, 68, 68); stroke-opacity: 1;"/></g></g></g><rect class="legendtoggle" x="0" y="-9.5" width="114.609375" height="19" style="fill: rgb(0, 0, 0); fill-opacity: 0;"/></g><g class="traces" transform="translate(0,356.5)" style="opacity: 1;"><text class="legendtext" text-anchor="start" x="40" y="4.680000000000001" style="font-family: 'Open Sans', verdana, arial, sans-serif; font-size: 12px; fill: rgb(42, 63, 95); fill-opacity: 1; white-space: pre;">not</text><g class="layers" style="opacity: 1;"><g class="legendfill"/><g class="legendlines"/><g class="legendsymbols"><g class="legendpoints"><path class="legendpie" d="M6,6H-6V-6H6Z" transform="translate(20,0)" style="stroke-width: 0; fill: rgb(255, 245, 235); fill-opacity: 1; stroke: rgb(68, 68, 68); stroke-opacity: 1;"/></g></g></g><rect class="legendtoggle" x="0" y="-9.5" width="114.609375" height="19" style="fill: rgb(0, 0, 0); fill-opacity: 0;"/></g><g class="traces" transform="translate(0,375.5)" style="opacity: 1;"><text class="legendtext" text-anchor="start" x="40" y="4.680000000000001" style="font-family: 'Open Sans', verdana, arial, sans-serif; font-size: 12px; fill: rgb(42, 63, 95); fill-opacity: 1; white-space: pre;">Charlie</text><g class="layers" style="opacity: 1;"><g class="legendfill"/><g class="legendlines"/><g class="legendsymbols"><g class="legendpoints"><path class="legendpie" d="M6,6H-6V-6H6Z" transform="translate(20,0)" style="stroke-width: 0; fill: rgb(254, 230, 206); fill-opacity: 1; stroke: rgb(68, 68, 68); stroke-opacity: 1;"/></g></g></g><rect class="legendtoggle" x="0" y="-9.5" width="114.609375" height="19" style="fill: rgb(0, 0, 0); fill-opacity: 0;"/></g></g></g><rect class="scrollbar" rx="20" ry="3" width="0" height="0" style="fill: rgb(128, 139, 164); fill-opacity: 1;" x="0" y="0"/></g><g class="g-gtitle"><text class="gtitle" x="35" y="50" text-anchor="start" dy="0em" style="font-family: 'Open Sans', verdana, arial, sans-serif; font-size: 17px; fill: rgb(42, 63, 95); opacity: 1; font-weight: normal; white-space: pre;">Low revenue topic 3 of genre: Thriller</text></g></g></svg>