<svg class="main-svg" xmlns="http://www.w3.org/2000/svg" xmlns:xlink="http://www.w3.org/1999/xlink" width="700" height="500" style="" viewBox="0 0 700 500"><rect x="0" y="0" width="700" height="500" style="fill: rgb(0, 0, 0); fill-opacity: 0;"/><defs id="defs-a540e6"><g class="clips"/><g class="gradients"/><g class="patterns"/></defs><g class="bglayer"/><g class="layer-below"><g class="imagelayer"/><g class="shapelayer"/></g><g class="cartesianlayer"/><g class="polarlayer"/><g class="smithlayer"/><g class="ternarylayer"/><g class="geolayer"/><g class="funnelarealayer"/><g class="pielayer"><g class="trace" stroke-linejoin="round" style="opacity: 1;"><g class="slice"><path class="surface" d="M378.02878848310195,242.07830933680737a48,48 0 0 0 -44.52878848310197,-30.07830933680738l0,-112a160,160 0 0 1 148.42929494367323,100.26103112269126Z" style="pointer-events: none; stroke-width: 0; fill: rgb(0, 68, 27); fill-opacity: 1; stroke: rgb(68, 68, 68); stroke-opacity: 1;"/><g class="slicetext"><text data-notex="1" class="slicetext" transform="translate(391.7135967961692,170.51424063353366)" text-anchor="middle" x="0" y="0" style="font-family: 'Open Sans', verdana, arial, sans-serif; font-size: 12px; fill: rgb(255, 255, 255); fill-opacity: 1; white-space: pre;"><tspan class="line" dy="0em" x="0" y="0">Batman</tspan><tspan class="line" dy="1.3em" x="0" y="0">18.9%</tspan></text></g></g><g class="slice"><path class="surface" d="M333.5,212a48,48 0 0 0 -34.25124954412623,14.37185844168618l-79.91958226962787,-78.46566363606557a160,160 0 0 1 114.1708318137541,-47.9061948056206Z" style="pointer-events: none; stroke-width: 0; fill: rgb(0, 109, 44); fill-opacity: 1; stroke: rgb(68, 68, 68); stroke-opacity: 1;"/><g class="slicetext"><text data-notex="1" class="slicetext" transform="translate(288.80106382149535,150.3170232541275)" text-anchor="middle" x="0" y="0" style="font-family: 'Open Sans', verdana, arial, sans-serif; font-size: 12px; fill: rgb(255, 255, 255); fill-opacity: 1; white-space: pre;"><tspan class="line" dy="0em" x="0" y="0">Bruce</tspan><tspan class="line" dy="1.3em" x="0" y="0">12.6%</tspan></text></g></g><g class="slice"><path class="surface" d="M299.2487504558738,226.3718584416862a48,48 0 0 0 -13.27807563696631,26.922677530376415l-110.9017587558826,-15.646082731853944a160,160 0 0 1 44.260252123221036,-89.74225843458805Z" style="pointer-events: none; stroke-width: 0; fill: rgb(35, 139, 69); fill-opacity: 1; stroke: rgb(68, 68, 68); stroke-opacity: 1;"/><g class="slicetext"><text data-notex="1" class="slicetext" transform="translate(224.1229523286033,202.78214466727326)" text-anchor="middle" x="0" y="0" style="font-family: 'Open Sans', verdana, arial, sans-serif; font-size: 12px; fill: rgb(255, 255, 255); fill-opacity: 1; white-space: pre;"><tspan class="line" dy="0em" x="0" y="0">Joker</tspan><tspan class="line" dy="1.3em" x="0" y="0">10.1%</tspan></text></g></g><g class="slice"><path class="surface" d="M285.97067481890747,253.2945359720626a48,48 0 0 0 1.7008400825642098,20.97956482532448l-106.93313189656611,33.30623519390318a160,160 0 0 1 -5.6694669418806996,-69.9318827510816Z" style="pointer-events: none; stroke-width: 0; fill: rgb(65, 171, 93); fill-opacity: 1; stroke: rgb(68, 68, 68); stroke-opacity: 1;"/><g class="slicetext"><text data-notex="1" class="slicetext" transform="translate(202.7013669375448,267.2993245331138)" text-anchor="middle" x="0" y="0" style="font-family: 'Open Sans', verdana, arial, sans-serif; font-size: 12px; fill: rgb(68, 68, 68); fill-opacity: 1; white-space: pre;"><tspan class="line" dy="0em" x="0" y="0">Gotham</tspan><tspan class="line" dy="1.3em" x="0" y="0">7.04%</tspan></text></g></g><g class="slice"><path class="surface" d="M287.67151490147165,274.27410079738706a48,48 0 0 0 7.397928958234931,14.48511259150374l-89.6712976606846,67.10483124074524a160,160 0 0 1 -24.659763194116437,-48.2837086383458Z" style="pointer-events: none; stroke-width: 0; fill: rgb(116, 196, 118); fill-opacity: 1; stroke: rgb(68, 68, 68); stroke-opacity: 1;"/><g class="slicetext"><text data-notex="1" class="slicetext" transform="translate(212.51609329550018,318.078930468256)rotate(-27.05459932103372)" text-anchor="middle" x="0" y="0" style="font-family: 'Open Sans', verdana, arial, sans-serif; font-size: 12px; fill: rgb(68, 68, 68); fill-opacity: 1; white-space: pre;"><tspan class="line" dy="0em" x="0" y="0">Gordon</tspan><tspan class="line" dy="1.3em" x="0" y="0">5.42%</tspan></text></g></g><g class="slice"><path class="surface" d="M295.0694438597066,288.7592133888908a48,48 0 0 0 10.546696767097263,10.311112773758785l-65.06233853745765,91.16409437951573a160,160 0 0 1 -35.15565589032421,-34.37037591252928Z" style="pointer-events: none; stroke-width: 0; fill: rgb(161, 217, 155); fill-opacity: 1; stroke: rgb(68, 68, 68); stroke-opacity: 1;"/><g class="slicetext"><text data-notex="1" class="slicetext" transform="translate(235.49762356406103,355.51426889867247)rotate(-45.647114672832686)" text-anchor="middle" x="0" y="0" style="font-family: 'Open Sans', verdana, arial, sans-serif; font-size: 12px; fill: rgb(68, 68, 68); fill-opacity: 1; white-space: pre;"><tspan class="line" dy="0em" x="0" y="0">Andrea</tspan><tspan class="line" dy="1.3em" x="0" y="0">4.91%</tspan></text></g></g><g class="slice"><path class="surface" d="M305.6161406268039,299.0703261626496a48,48 0 0 0 11.356111846100093,5.994444575484306l-38.56474422989077,105.15113172231244a160,160 0 0 1 -37.85370615366698,-19.98148191828102Z" style="pointer-events: none; stroke-width: 0; fill: rgb(199, 233, 192); fill-opacity: 1; stroke: rgb(68, 68, 68); stroke-opacity: 1;"/><g class="slicetext"><text data-notex="1" class="slicetext" transform="translate(265.2483765899795,382.4776978955705)scale(0.9635066908314094)rotate(-62.172190000441674)" text-anchor="middle" x="0" y="0" style="font-family: 'Open Sans', verdana, arial, sans-serif; font-size: 12px; fill: rgb(68, 68, 68); fill-opacity: 1; white-space: pre;"><tspan class="line" dy="0em" x="0" y="0">Wayne</tspan><tspan class="line" dy="1.3em" x="0" y="0">4.27%</tspan></text></g></g><g class="slice"><path class="surface" d="M316.97225247290396,305.0647707381339a48,48 0 0 0 11.619699512223095,2.6836435254173154l-11.45211203470355,111.41296661495285a160,160 0 0 1 -38.73233170741032,-8.945478418057718Z" style="pointer-events: none; stroke-width: 0; fill: rgb(229, 245, 224); fill-opacity: 1; stroke: rgb(68, 68, 68); stroke-opacity: 1;"/><g class="slicetext"><text data-notex="1" class="slicetext" transform="translate(298.33889435042727,398.5202367518037)scale(0.9343380873488188)rotate(-76.99520391762667)" text-anchor="middle" x="0" y="0" style="font-family: 'Open Sans', verdana, arial, sans-serif; font-size: 12px; fill: rgb(68, 68, 68); fill-opacity: 1; white-space: pre;"><tspan class="line" dy="0em" x="0" y="0">dent</tspan><tspan class="line" dy="1.3em" x="0" y="0">3.96%</tspan></text></g></g><g class="slice"><path class="surface" d="M328.591951985127,307.74841426355124a48,48 0 0 0 11.371883486127937,-0.18562596218535815l15.082282766261635,110.97983936985368a160,160 0 0 1 -37.90627828709312,0.6187532072845272Z" style="pointer-events: none; stroke-width: 0; fill: rgb(247, 252, 245); fill-opacity: 1; stroke: rgb(68, 68, 68); stroke-opacity: 1;"/><g class="slicetext"><text data-notex="1" class="slicetext" transform="translate(338.74185160891096,402.28607068810453)scale(0.8832585086801756)rotate(89.06483039904333)" text-anchor="middle" x="0" y="0" style="font-family: 'Open Sans', verdana, arial, sans-serif; font-size: 12px; fill: rgb(68, 68, 68); fill-opacity: 1; white-space: pre;"><tspan class="line" dy="0em" x="0" y="0">Rachel</tspan><tspan class="line" dy="1.3em" x="0" y="0">3.78%</tspan></text></g></g><g class="slice"><path class="surface" d="M339.963835471255,307.56278830136586a48,48 0 0 0 10.20294023317174,-2.5492504753036798l38.889143310329025,105.03158826081176a160,160 0 0 1 -34.009800777239136,8.4975015843456Z" style="pointer-events: none; stroke-width: 0; fill: rgb(0, 68, 27); fill-opacity: 1; stroke: rgb(68, 68, 68); stroke-opacity: 1;"/><g class="slicetext"><text data-notex="1" class="slicetext" transform="translate(371.2325388911914,399.5108685061868)scale(0.844065554664537)rotate(75.9716032437924)" text-anchor="middle" x="0" y="0" style="font-family: 'Open Sans', verdana, arial, sans-serif; font-size: 12px; fill: rgb(255, 255, 255); fill-opacity: 1; white-space: pre;"><tspan class="line" dy="0em" x="0" y="0">Dent</tspan><tspan class="line" dy="1.3em" x="0" y="0">3.49%</tspan></text></g></g><g class="slice"><path class="surface" d="M350.16677570442675,305.0135378260622a48,48 0 0 0 9.190961859683572,-4.573738023570587l60.33472098292403,94.35953287248039a160,160 0 0 1 -30.636539532278576,15.245793411901957Z" style="pointer-events: none; stroke-width: 0; fill: rgb(0, 109, 44); fill-opacity: 1; stroke: rgb(68, 68, 68); stroke-opacity: 1;"/><g class="slicetext"><text data-notex="1" class="slicetext" transform="translate(400.4647930832083,388.42773461608965)scale(0.8275608842135136)rotate(63.543486340809864)" text-anchor="middle" x="0" y="0" style="font-family: 'Open Sans', verdana, arial, sans-serif; font-size: 12px; fill: rgb(255, 255, 255); fill-opacity: 1; white-space: pre;"><tspan class="line" dy="0em" x="0" y="0">Bane</tspan><tspan class="line" dy="1.3em" x="0" y="0">3.41%</tspan></text></g></g><g class="slice"><path class="surface" d="M359.3577375641103,300.4397998024916a48,48 0 0 0 7.3177656774756965,-5.7499455988845l77.40950756370066,80.9429931417499a160,160 0 0 1 -24.392552258252323,19.166485329615Z" style="pointer-events: none; stroke-width: 0; fill: rgb(35, 139, 69); fill-opacity: 1; stroke: rgb(68, 68, 68); stroke-opacity: 1;"/><g class="slicetext"><text data-notex="1" class="slicetext" transform="translate(425.71252841713556,373.2747399572066)scale(0.7629959838391827)rotate(51.84145392387836)" text-anchor="middle" x="0" y="0" style="font-family: 'Open Sans', verdana, arial, sans-serif; font-size: 12px; fill: rgb(255, 255, 255); fill-opacity: 1; white-space: pre;"><tspan class="line" dy="0em" x="0" y="0">ra</tspan><tspan class="line" dy="1.3em" x="0" y="0">3.09%</tspan></text></g></g><g class="slice"><path class="surface" d="M366.675503241586,294.68985420360707a48,48 0 0 0 5.576386112930959,-6.365111107591638l90.42107516053956,66.09106722403607a160,160 0 0 1 -18.587953709769863,21.21703702530546Z" style="pointer-events: none; stroke-width: 0; fill: rgb(65, 171, 93); fill-opacity: 1; stroke: rgb(68, 68, 68); stroke-opacity: 1;"/><g class="slicetext"><text data-notex="1" class="slicetext" transform="translate(445.7163711387205,355.2165646113157)scale(0.7043658876659494)rotate(41.22115471636914)" text-anchor="middle" x="0" y="0" style="font-family: 'Open Sans', verdana, arial, sans-serif; font-size: 12px; fill: rgb(68, 68, 68); fill-opacity: 1; white-space: pre;"><tspan class="line" dy="0em" x="0" y="0">Vicki</tspan><tspan class="line" dy="1.3em" x="0" y="0">2.81%</tspan></text></g></g><g class="slice"><path class="surface" d="M372.25188935451695,288.3247430960155a48,48 0 0 0 4.236223598078328,-6.970068086198303l100.305596889389,49.8275750229067a160,160 0 0 1 -14.12074532692776,23.233560287327677Z" style="pointer-events: none; stroke-width: 0; fill: rgb(116, 196, 118); fill-opacity: 1; stroke: rgb(68, 68, 68); stroke-opacity: 1;"/><g class="slicetext"><text data-notex="1" class="slicetext" transform="translate(460.76883469445585,334.71076682956135)scale(0.6826366474828545)rotate(31.290130969975905)" text-anchor="middle" x="0" y="0" style="font-family: 'Open Sans', verdana, arial, sans-serif; font-size: 12px; fill: rgb(68, 68, 68); fill-opacity: 1; white-space: pre;"><tspan class="line" dy="0em" x="0" y="0">Alfred</tspan><tspan class="line" dy="1.3em" x="0" y="0">2.71%</tspan></text></g></g><g class="slice"><path class="surface" d="M376.48811295259526,281.35467500981713a48,48 0 0 0 2.986530123567047,-7.558581576548479l107.2741671777121,32.19088467762691a160,160 0 0 1 -9.955100411890157,25.195271921828265Z" style="pointer-events: none; stroke-width: 0; fill: rgb(161, 217, 155); fill-opacity: 1; stroke: rgb(68, 68, 68); stroke-opacity: 1;"/><g class="slicetext"><text data-notex="1" class="slicetext" transform="translate(469.0146849061512,311.22264321861525)scale(0.6533709487774285)rotate(21.559858177040837)" text-anchor="middle" x="0" y="0" style="font-family: 'Open Sans', verdana, arial, sans-serif; font-size: 12px; fill: rgb(68, 68, 68); fill-opacity: 1; white-space: pre;"><tspan class="line" dy="0em" x="0" y="0">Falcone</tspan><tspan class="line" dy="1.3em" x="0" y="0">2.7%</tspan></text></g></g><g class="slice"><path class="surface" d="M379.47464307616235,273.79609343326865a48,48 0 0 0 1.5256235061545282,-6.887788676757704l110.83395535873933,16.11937776519227a160,160 0 0 1 -5.085411687181761,22.959295589192347Z" style="pointer-events: none; stroke-width: 0; fill: rgb(199, 233, 192); fill-opacity: 1; stroke: rgb(68, 68, 68); stroke-opacity: 1;"/><g class="slicetext"><text data-notex="1" class="slicetext" transform="translate(478.40921133972506,290.08935228965737)scale(0.5931199169719663)rotate(12.489196750300096)" text-anchor="middle" x="0" y="0" style="font-family: 'Open Sans', verdana, arial, sans-serif; font-size: 12px; fill: rgb(68, 68, 68); fill-opacity: 1; white-space: pre;"><tspan class="line" dy="0em" x="0" y="0">Napier</tspan><tspan class="line" dy="1.3em" x="0" y="0">2.34%</tspan></text></g></g><g class="slice"><path class="surface" d="M381.00026658231684,266.908304756511a48,48 0 0 0 0.4993678867607201,-6.72097927789337l111.99914709451434,0.43709278344107316a160,160 0 0 1 -1.6645596225357338,22.40326425964457Z" style="pointer-events: none; stroke-width: 0; fill: rgb(229, 245, 224); fill-opacity: 1; stroke: rgb(68, 68, 68); stroke-opacity: 1;"/><g class="slicetext"><text data-notex="1" class="slicetext" transform="translate(482.7326815102434,269.1691519601385)scale(0.5790388111708986)rotate(4.249261141215243)" text-anchor="middle" x="0" y="0" style="font-family: 'Open Sans', verdana, arial, sans-serif; font-size: 12px; fill: rgb(68, 68, 68); fill-opacity: 1; white-space: pre;"><tspan class="line" dy="0em" x="0" y="0">Crane</tspan><tspan class="line" dy="1.3em" x="0" y="0">2.24%</tspan></text></g></g><g class="slice"><path class="surface" d="M381.4996344690776,260.1873254786176a48,48 0 0 0 -0.4092015638796596,-6.444377172175467l111.0443434454618,-14.59978728496835a160,160 0 0 1 1.3640052129321987,21.481257240584892Z" style="pointer-events: none; stroke-width: 0; fill: rgb(247, 252, 245); fill-opacity: 1; stroke: rgb(68, 68, 68); stroke-opacity: 1;"/><g class="slicetext"><text data-notex="1" class="slicetext" transform="translate(482.98047170186317,248.66148392003598)scale(0.5577453804453888)rotate(-3.633258537133031)" text-anchor="middle" x="0" y="0" style="font-family: 'Open Sans', verdana, arial, sans-serif; font-size: 12px; fill: rgb(68, 68, 68); fill-opacity: 1; white-space: pre;"><tspan class="line" dy="0em" x="0" y="0">bomb</tspan><tspan class="line" dy="1.3em" x="0" y="0">2.14%</tspan></text></g></g><g class="slice"><path class="surface" d="M381.09043290519793,253.74294830644214a48,48 0 0 0 -1.1988549786349296,-6.064534952797113l108.2470151619803,-28.750368841494947a160,160 0 0 1 3.996183262116432,20.21511650932371Z" style="pointer-events: none; stroke-width: 0; fill: rgb(0, 68, 27); fill-opacity: 1; stroke: rgb(68, 68, 68); stroke-opacity: 1;"/><g class="slicetext"><text data-notex="1" class="slicetext" transform="translate(480.5919455749479,229.11435541259144)scale(0.536738662652518)rotate(-11.1822229925682)" text-anchor="middle" x="0" y="0" style="font-family: 'Open Sans', verdana, arial, sans-serif; font-size: 12px; fill: rgb(255, 255, 255); fill-opacity: 1; white-space: pre;"><tspan class="line" dy="0em" x="0" y="0">Fox</tspan><tspan class="line" dy="1.3em" x="0" y="0">2.05%</tspan></text></g></g><g class="slice"><path class="surface" d="M379.891577926563,247.67841335364503a48,48 0 0 0 -1.862789443461014,-5.600104016837617l103.90050646057128,-41.81727821411605a160,160 0 0 1 6.209298144870047,18.667013389458724Z" style="pointer-events: none; stroke-width: 0; fill: rgb(0, 109, 44); fill-opacity: 1; stroke: rgb(68, 68, 68); stroke-opacity: 1;"/><g class="slicetext"><text data-notex="1" class="slicetext" transform="translate(474.44102820855096,211.36380673430847)scale(0.503716884613687)rotate(-18.398920233829926)" text-anchor="middle" x="0" y="0" style="font-family: 'Open Sans', verdana, arial, sans-serif; font-size: 12px; fill: rgb(255, 255, 255); fill-opacity: 1; white-space: pre;"><tspan class="line" dy="0em" x="0" y="0">League</tspan><tspan class="line" dy="1.3em" x="0" y="0">1.96%</tspan></text></g></g></g></g><g class="iciclelayer"/><g class="treemaplayer"/><g class="sunburstlayer"/><g class="glimages"/><defs id="topdefs-a540e6"><g class="clips"/><clipPath id="legenda540e6"><rect width="91" height="320" x="0" y="0"/></clipPath></defs><g class="layer-above"><g class="imagelayer"/><g class="shapelayer"/></g><g class="infolayer"><g class="legend" pointer-events="all" transform="translate(597.14,100)"><rect class="bg" shape-rendering="crispEdges" style="stroke: rgb(68, 68, 68); stroke-opacity: 1; fill: rgb(0, 0, 0); fill-opacity: 0; stroke-width: 0px;" width="91" height="320" x="0" y="0"/><g class="scrollbox" transform="" clip-path="url(#legenda540e6)"><g class="groups"><g class="traces" transform="translate(0,14.5)" style="opacity: 1;"><text class="legendtext" text-anchor="start" x="40" y="4.680000000000001" style="font-family: 'Open Sans', verdana, arial, sans-serif; font-size: 12px; fill: rgb(42, 63, 95); fill-opacity: 1; white-space: pre;">Batman</text><g class="layers" style="opacity: 1;"><g class="legendfill"/><g class="legendlines"/><g class="legendsymbols"><g class="legendpoints"><path class="legendpie" d="M6,6H-6V-6H6Z" transform="translate(20,0)" style="stroke-width: 0; fill: rgb(0, 68, 27); fill-opacity: 1; stroke: rgb(68, 68, 68); stroke-opacity: 1;"/></g></g></g><rect class="legendtoggle" x="0" y="-9.5" width="85.421875" height="19" style="fill: rgb(0, 0, 0); fill-opacity: 0;"/></g><g class="traces" transform="translate(0,33.5)" style="opacity: 1;"><text class="legendtext" text-anchor="start" x="40" y="4.680000000000001" style="font-family: 'Open Sans', verdana, arial, sans-serif; font-size: 12px; fill: rgb(42, 63, 95); fill-opacity: 1; white-space: pre;">Bruce</text><g class="layers" style="opacity: 1;"><g class="legendfill"/><g class="legendlines"/><g class="legendsymbols"><g class="legendpoints"><path class="legendpie" d="M6,6H-6V-6H6Z" transform="translate(20,0)" style="stroke-width: 0; fill: rgb(0, 109, 44); fill-opacity: 1; stroke: rgb(68, 68, 68); stroke-opacity: 1;"/></g></g></g><rect class="legendtoggle" x="0" y="-9.5" width="85.421875" height="19" style="fill: rgb(0, 0, 0); fill-opacity: 0;"/></g><g class="traces" transform="translate(0,52.5)" style="opacity: 1;"><text class="legendtext" text-anchor="start" x="40" y="4.680000000000001" style="font-family: 'Open Sans', verdana, arial, sans-serif; font-size: 12px; fill: rgb(42, 63, 95); fill-opacity: 1; white-space: pre;">Joker</text><g class="layers" style="opacity: 1;"><g class="legendfill"/><g class="legendlines"/><g class="legendsymbols"><g class="legendpoints"><path class="legendpie" d="M6,6H-6V-6H6Z" transform="translate(20,0)" style="stroke-width: 0; fill: rgb(35, 139, 69); fill-opacity: 1; stroke: rgb(68, 68, 68); stroke-opacity: 1;"/></g></g></g><rect class="legendtoggle" x="0" y="-9.5" width="85.421875" height="19" style="fill: rgb(0, 0, 0); fill-opacity: 0;"/></g><g class="traces" transform="translate(0,71.5)" style="opacity: 1;"><text class="legendtext" text-anchor="start" x="40" y="4.680000000000001" style="font-family: 'Open Sans', verdana, arial, sans-serif; font-size: 12px; fill: rgb(42, 63, 95); fill-opacity: 1; white-space: pre;">Gotham</text><g class="layers" style="opacity: 1;"><g class="legendfill"/><g class="legendlines"/><g class="legendsymbols"><g class="legendpoints"><path class="legendpie" d="M6,6H-6V-6H6Z" transform="translate(20,0)" style="stroke-width: 0; fill: rgb(65, 171, 93); fill-opacity: 1; stroke: rgb(68, 68, 68); stroke-opacity: 1;"/></g></g></g><rect class="legendtoggle" x="0" y="-9.5" width="85.421875" height="19" style="fill: rgb(0, 0, 0); fill-opacity: 0;"/></g><g class="traces" transform="translate(0,90.5)" style="opacity: 1;"><text class="legendtext" text-anchor="start" x="40" y="4.680000000000001" style="font-family: 'Open Sans', verdana, arial, sans-serif; font-size: 12px; fill: rgb(42, 63, 95); fill-opacity: 1; white-space: pre;">Gordon</text><g class="layers" style="opacity: 1;"><g class="legendfill"/><g class="legendlines"/><g class="legendsymbols"><g class="legendpoints"><path class="legendpie" d="M6,6H-6V-6H6Z" transform="translate(20,0)" style="stroke-width: 0; fill: rgb(116, 196, 118); fill-opacity: 1; stroke: rgb(68, 68, 68); stroke-opacity: 1;"/></g></g></g><rect class="legendtoggle" x="0" y="-9.5" width="85.421875" height="19" style="fill: rgb(0, 0, 0); fill-opacity: 0;"/></g><g class="traces" transform="translate(0,109.5)" style="opacity: 1;"><text class="legendtext" text-anchor="start" x="40" y="4.680000000000001" style="font-family: 'Open Sans', verdana, arial, sans-serif; font-size: 12px; fill: rgb(42, 63, 95); fill-opacity: 1; white-space: pre;">Andrea</text><g class="layers" style="opacity: 1;"><g class="legendfill"/><g class="legendlines"/><g class="legendsymbols"><g class="legendpoints"><path class="legendpie" d="M6,6H-6V-6H6Z" transform="translate(20,0)" style="stroke-width: 0; fill: rgb(161, 217, 155); fill-opacity: 1; stroke: rgb(68, 68, 68); stroke-opacity: 1;"/></g></g></g><rect class="legendtoggle" x="0" y="-9.5" width="85.421875" height="19" style="fill: rgb(0, 0, 0); fill-opacity: 0;"/></g><g class="traces" transform="translate(0,128.5)" style="opacity: 1;"><text class="legendtext" text-anchor="start" x="40" y="4.680000000000001" style="font-family: 'Open Sans', verdana, arial, sans-serif; font-size: 12px; fill: rgb(42, 63, 95); fill-opacity: 1; white-space: pre;">Wayne</text><g class="layers" style="opacity: 1;"><g class="legendfill"/><g class="legendlines"/><g class="legendsymbols"><g class="legendpoints"><path class="legendpie" d="M6,6H-6V-6H6Z" transform="translate(20,0)" style="stroke-width: 0; fill: rgb(199, 233, 192); fill-opacity: 1; stroke: rgb(68, 68, 68); stroke-opacity: 1;"/></g></g></g><rect class="legendtoggle" x="0" y="-9.5" width="85.421875" height="19" style="fill: rgb(0, 0, 0); fill-opacity: 0;"/></g><g class="traces" transform="translate(0,147.5)" style="opacity: 1;"><text class="legendtext" text-anchor="start" x="40" y="4.680000000000001" style="font-family: 'Open Sans', verdana, arial, sans-serif; font-size: 12px; fill: rgb(42, 63, 95); fill-opacity: 1; white-space: pre;">dent</text><g class="layers" style="opacity: 1;"><g class="legendfill"/><g class="legendlines"/><g class="legendsymbols"><g class="legendpoints"><path class="legendpie" d="M6,6H-6V-6H6Z" transform="translate(20,0)" style="stroke-width: 0; fill: rgb(229, 245, 224); fill-opacity: 1; stroke: rgb(68, 68, 68); stroke-opacity: 1;"/></g></g></g><rect class="legendtoggle" x="0" y="-9.5" width="85.421875" height="19" style="fill: rgb(0, 0, 0); fill-opacity: 0;"/></g><g class="traces" transform="translate(0,166.5)" style="opacity: 1;"><text class="legendtext" text-anchor="start" x="40" y="4.680000000000001" style="font-family: 'Open Sans', verdana, arial, sans-serif; font-size: 12px; fill: rgb(42, 63, 95); fill-opacity: 1; white-space: pre;">Rachel</text><g class="layers" style="opacity: 1;"><g class="legendfill"/><g class="legendlines"/><g class="legendsymbols"><g class="legendpoints"><path class="legendpie" d="M6,6H-6V-6H6Z" transform="translate(20,0)" style="stroke-width: 0; fill: rgb(247, 252, 245); fill-opacity: 1; stroke: rgb(68, 68, 68); stroke-opacity: 1;"/></g></g></g><rect class="legendtoggle" x="0" y="-9.5" width="85.421875" height="19" style="fill: rgb(0, 0, 0); fill-opacity: 0;"/></g><g class="traces" transform="translate(0,185.5)" style="opacity: 1;"><text class="legendtext" text-anchor="start" x="40" y="4.680000000000001" style="font-family: 'Open Sans', verdana, arial, sans-serif; font-size: 12px; fill: rgb(42, 63, 95); fill-opacity: 1; white-space: pre;">Dent</text><g class="layers" style="opacity: 1;"><g class="legendfill"/><g class="legendlines"/><g class="legendsymbols"><g class="legendpoints"><path class="legendpie" d="M6,6H-6V-6H6Z" transform="translate(20,0)" style="stroke-width: 0; fill: rgb(0, 68, 27); fill-opacity: 1; stroke: rgb(68, 68, 68); stroke-opacity: 1;"/></g></g></g><rect class="legendtoggle" x="0" y="-9.5" width="85.421875" height="19" style="fill: rgb(0, 0, 0); fill-opacity: 0;"/></g><g class="traces" transform="translate(0,204.5)" style="opacity: 1;"><text class="legendtext" text-anchor="start" x="40" y="4.680000000000001" style="font-family: 'Open Sans', verdana, arial, sans-serif; font-size: 12px; fill: rgb(42, 63, 95); fill-opacity: 1; white-space: pre;">Bane</text><g class="layers" style="opacity: 1;"><g class="legendfill"/><g class="legendlines"/><g class="legendsymbols"><g class="legendpoints"><path class="legendpie" d="M6,6H-6V-6H6Z" transform="translate(20,0)" style="stroke-width: 0; fill: rgb(0, 109, 44); fill-opacity: 1; stroke: rgb(68, 68, 68); stroke-opacity: 1;"/></g></g></g><rect class="legendtoggle" x="0" y="-9.5" width="85.421875" height="19" style="fill: rgb(0, 0, 0); fill-opacity: 0;"/></g><g class="traces" transform="translate(0,223.5)" style="opacity: 1;"><text class="legendtext" text-anchor="start" x="40" y="4.680000000000001" style="font-family: 'Open Sans', verdana, arial, sans-serif; font-size: 12px; fill: rgb(42, 63, 95); fill-opacity: 1; white-space: pre;">ra</text><g class="layers" style="opacity: 1;"><g class="legendfill"/><g class="legendlines"/><g class="legendsymbols"><g class="legendpoints"><path class="legendpie" d="M6,6H-6V-6H6Z" transform="translate(20,0)" style="stroke-width: 0; fill: rgb(35, 139, 69); fill-opacity: 1; stroke: rgb(68, 68, 68); stroke-opacity: 1;"/></g></g></g><rect class="legendtoggle" x="0" y="-9.5" width="85.421875" height="19" style="fill: rgb(0, 0, 0); fill-opacity: 0;"/></g><g class="traces" transform="translate(0,242.5)" style="opacity: 1;"><text class="legendtext" text-anchor="start" x="40" y="4.680000000000001" style="font-family: 'Open Sans', verdana, arial, sans-serif; font-size: 12px; fill: rgb(42, 63, 95); fill-opacity: 1; white-space: pre;">Vicki</text><g class="layers" style="opacity: 1;"><g class="legendfill"/><g class="legendlines"/><g class="legendsymbols"><g class="legendpoints"><path class="legendpie" d="M6,6H-6V-6H6Z" transform="translate(20,0)" style="stroke-width: 0; fill: rgb(65, 171, 93); fill-opacity: 1; stroke: rgb(68, 68, 68); stroke-opacity: 1;"/></g></g></g><rect class="legendtoggle" x="0" y="-9.5" width="85.421875" height="19" style="fill: rgb(0, 0, 0); fill-opacity: 0;"/></g><g class="traces" transform="translate(0,261.5)" style="opacity: 1;"><text class="legendtext" text-anchor="start" x="40" y="4.680000000000001" style="font-family: 'Open Sans', verdana, arial, sans-serif; font-size: 12px; fill: rgb(42, 63, 95); fill-opacity: 1; white-space: pre;">Alfred</text><g class="layers" style="opacity: 1;"><g class="legendfill"/><g class="legendlines"/><g class="legendsymbols"><g class="legendpoints"><path class="legendpie" d="M6,6H-6V-6H6Z" transform="translate(20,0)" style="stroke-width: 0; fill: rgb(116, 196, 118); fill-opacity: 1; stroke: rgb(68, 68, 68); stroke-opacity: 1;"/></g></g></g><rect class="legendtoggle" x="0" y="-9.5" width="85.421875" height="19" style="fill: rgb(0, 0, 0); fill-opacity: 0;"/></g><g class="traces" transform="translate(0,280.5)" style="opacity: 1;"><text class="legendtext" text-anchor="start" x="40" y="4.680000000000001" style="font-family: 'Open Sans', verdana, arial, sans-serif; font-size: 12px; fill: rgb(42, 63, 95); fill-opacity: 1; white-space: pre;">Falcone</text><g class="layers" style="opacity: 1;"><g class="legendfill"/><g class="legendlines"/><g class="legendsymbols"><g class="legendpoints"><path class="legendpie" d="M6,6H-6V-6H6Z" transform="translate(20,0)" style="stroke-width: 0; fill: rgb(161, 217, 155); fill-opacity: 1; stroke: rgb(68, 68, 68); stroke-opacity: 1;"/></g></g></g><rect class="legendtoggle" x="0" y="-9.5" width="85.421875" height="19" style="fill: rgb(0, 0, 0); fill-opacity: 0;"/></g><g class="traces" transform="translate(0,299.5)" style="opacity: 1;"><text class="legendtext" text-anchor="start" x="40" y="4.680000000000001" style="font-family: 'Open Sans', verdana, arial, sans-serif; font-size: 12px; fill: rgb(42, 63, 95); fill-opacity: 1; white-space: pre;">Napier</text><g class="layers" style="opacity: 1;"><g class="legendfill"/><g class="legendlines"/><g class="legendsymbols"><g class="legendpoints"><path class="legendpie" d="M6,6H-6V-6H6Z" transform="translate(20,0)" style="stroke-width: 0; fill: rgb(199, 233, 192); fill-opacity: 1; stroke: rgb(68, 68, 68); stroke-opacity: 1;"/></g></g></g><rect class="legendtoggle" x="0" y="-9.5" width="85.421875" height="19" style="fill: rgb(0, 0, 0); fill-opacity: 0;"/></g><g class="traces" transform="translate(0,318.5)" style="opacity: 1;"><text class="legendtext" text-anchor="start" x="40" y="4.680000000000001" style="font-family: 'Open Sans', verdana, arial, sans-serif; font-size: 12px; fill: rgb(42, 63, 95); fill-opacity: 1; white-space: pre;">Crane</text><g class="layers" style="opacity: 1;"><g class="legendfill"/><g class="legendlines"/><g class="legendsymbols"><g class="legendpoints"><path class="legendpie" d="M6,6H-6V-6H6Z" transform="translate(20,0)" style="stroke-width: 0; fill: rgb(229, 245, 224); fill-opacity: 1; stroke: rgb(68, 68, 68); stroke-opacity: 1;"/></g></g></g><rect class="legendtoggle" x="0" y="-9.5" width="85.421875" height="19" style="fill: rgb(0, 0, 0); fill-opacity: 0;"/></g><g class="traces" transform="translate(0,337.5)" style="opacity: 1;"><text class="legendtext" text-anchor="start" x="40" y="4.680000000000001" style="font-family: 'Open Sans', verdana, arial, sans-serif; font-size: 12px; fill: rgb(42, 63, 95); fill-opacity: 1; white-space: pre;">bomb</text><g class="layers" style="opacity: 1;"><g class="legendfill"/><g class="legendlines"/><g class="legendsymbols"><g class="legendpoints"><path class="legendpie" d="M6,6H-6V-6H6Z" transform="translate(20,0)" style="stroke-width: 0; fill: rgb(247, 252, 245); fill-opacity: 1; stroke: rgb(68, 68, 68); stroke-opacity: 1;"/></g></g></g><rect class="legendtoggle" x="0" y="-9.5" width="85.421875" height="19" style="fill: rgb(0, 0, 0); fill-opacity: 0;"/></g><g class="traces" transform="translate(0,356.5)" style="opacity: 1;"><text class="legendtext" text-anchor="start" x="40" y="4.680000000000001" style="font-family: 'Open Sans', verdana, arial, sans-serif; font-size: 12px; fill: rgb(42, 63, 95); fill-opacity: 1; white-space: pre;">Fox</text><g class="layers" style="opacity: 1;"><g class="legendfill"/><g class="legendlines"/><g class="legendsymbols"><g class="legendpoints"><path class="legendpie" d="M6,6H-6V-6H6Z" transform="translate(20,0)" style="stroke-width: 0; fill: rgb(0, 68, 27); fill-opacity: 1; stroke: rgb(68, 68, 68); stroke-opacity: 1;"/></g></g></g><rect class="legendtoggle" x="0" y="-9.5" width="85.421875" height="19" style="fill: rgb(0, 0, 0); fill-opacity: 0;"/></g><g class="traces" transform="translate(0,375.5)" style="opacity: 1;"><text class="legendtext" text-anchor="start" x="40" y="4.680000000000001" style="font-family: 'Open Sans', verdana, arial, sans-serif; font-size: 12px; fill: rgb(42, 63, 95); fill-opacity: 1; white-space: pre;">League</text><g class="layers" style="opacity: 1;"><g class="legendfill"/><g class="legendlines"/><g class="legendsymbols"><g class="legendpoints"><path class="legendpie" d="M6,6H-6V-6H6Z" transform="translate(20,0)" style="stroke-width: 0; fill: rgb(0, 109, 44); fill-opacity: 1; stroke: rgb(68, 68, 68); stroke-opacity: 1;"/></g></g></g><rect class="legendtoggle" x="0" y="-9.5" width="85.421875" height="19" style="fill: rgb(0, 0, 0); fill-opacity: 0;"/></g></g></g><rect class="scrollbar" rx="20" ry="3" width="0" height="0" style="fill: rgb(128, 139, 164); fill-opacity: 1;" x="0" y="0"/></g><g class="g-gtitle"><text class="gtitle" x="35" y="50" text-anchor="start" dy="0em" style="font-family: 'Open Sans', verdana, arial, sans-serif; font-size: 17px; fill: rgb(42, 63, 95); opacity: 1; font-weight: normal; white-space: pre;">High rating topic 3 of genre: Thriller</text></g></g></svg>