<svg class="main-svg" xmlns="http://www.w3.org/2000/svg" xmlns:xlink="http://www.w3.org/1999/xlink" width="700" height="500" style="" viewBox="0 0 700 500"><rect x="0" y="0" width="700" height="500" style="fill: rgb(0, 0, 0); fill-opacity: 0;"/><defs id="defs-2947f8"><g class="clips"/><g class="gradients"/><g class="patterns"/></defs><g class="bglayer"/><g class="layer-below"><g class="imagelayer"/><g class="shapelayer"/></g><g class="cartesianlayer"/><g class="polarlayer"/><g class="smithlayer"/><g class="ternarylayer"/><g class="geolayer"/><g class="funnelarealayer"/><g class="pielayer"><g class="trace" stroke-linejoin="round" style="opacity: 1;"><g class="slice"><path class="surface" d="M365.7397897983694,223.13449684119223a48,48 0 0 0 -30.73978979836939,-11.134496841192238l0,-112a160,160 0 0 1 102.46596599456464,37.11498947064079Z" style="pointer-events: none; stroke-width: 0; fill: rgb(255, 245, 235); fill-opacity: 1; stroke: rgb(68, 68, 68); stroke-opacity: 1;"/><g class="slicetext"><text data-notex="1" class="slicetext" transform="translate(375.58481584225973,144.47740425681053)" text-anchor="middle" x="0" y="0" style="font-family: 'Open Sans', verdana, arial, sans-serif; font-size: 12px; fill: rgb(68, 68, 68); fill-opacity: 1; white-space: pre;"><tspan class="line" dy="0em" x="0" y="0">have</tspan><tspan class="line" dy="1.3em" x="0" y="0">11.1%</tspan></text></g></g><g class="slice"><path class="surface" d="M335,212a48,48 0 0 0 -18.622831652852593,3.759858259387195l-43.45327385665605,-103.2269973947632a160,160 0 0 1 62.07610550950864,-12.532860864623984Z" style="pointer-events: none; stroke-width: 0; fill: rgb(254, 230, 206); fill-opacity: 1; stroke: rgb(68, 68, 68); stroke-opacity: 1;"/><g class="slicetext"><text data-notex="1" class="slicetext" transform="translate(308.50435592619647,125.7701663424231)" text-anchor="middle" x="0" y="0" style="font-family: 'Open Sans', verdana, arial, sans-serif; font-size: 12px; fill: rgb(68, 68, 68); fill-opacity: 1; white-space: pre;"><tspan class="line" dy="0em" x="0" y="0">man</tspan><tspan class="line" dy="1.3em" x="0" y="0">6.34%</tspan></text></g></g><g class="slice"><path class="surface" d="M316.3771683471474,215.7598582593872a48,48 0 0 0 -15.204955997065216,10.186055602352269l-78.93150451647489,-79.45953432260791a160,160 0 0 1 50.683186656884054,-33.95351867450756Z" style="pointer-events: none; stroke-width: 0; fill: rgb(253, 208, 162); fill-opacity: 1; stroke: rgb(68, 68, 68); stroke-opacity: 1;"/><g class="slicetext"><text data-notex="1" class="slicetext" transform="translate(260.1450940383859,145.05099344696407)" text-anchor="middle" x="0" y="0" style="font-family: 'Open Sans', verdana, arial, sans-serif; font-size: 12px; fill: rgb(68, 68, 68); fill-opacity: 1; white-space: pre;"><tspan class="line" dy="0em" x="0" y="0">kill</tspan><tspan class="line" dy="1.3em" x="0" y="0">6.11%</tspan></text></g></g><g class="slice"><path class="surface" d="M301.1722123500822,225.94591386173946a48,48 0 0 0 -9.676232213292673,13.771082027888044l-101.50937968082445,-47.327009590869146a160,160 0 0 1 32.25410737764224,-45.90360675962681Z" style="pointer-events: none; stroke-width: 0; fill: rgb(253, 174, 107); fill-opacity: 1; stroke: rgb(68, 68, 68); stroke-opacity: 1;"/><g class="slicetext"><text data-notex="1" class="slicetext" transform="translate(223.55163623466802,178.43018555580827)" text-anchor="middle" x="0" y="0" style="font-family: 'Open Sans', verdana, arial, sans-serif; font-size: 12px; fill: rgb(68, 68, 68); fill-opacity: 1; white-space: pre;"><tspan class="line" dy="0em" x="0" y="0">find</tspan><tspan class="line" dy="1.3em" x="0" y="0">5.61%</tspan></text></g></g><g class="slice"><path class="surface" d="M291.4959801367895,239.7169958896275a48,48 0 0 0 -4.140134615570491,14.449090843785871l-111.16969378382227,-13.61246428870211a160,160 0 0 1 13.800448718568305,-48.16363614595291Z" style="pointer-events: none; stroke-width: 0; fill: rgb(253, 141, 60); fill-opacity: 1; stroke: rgb(68, 68, 68); stroke-opacity: 1;"/><g class="slicetext"><text data-notex="1" class="slicetext" transform="translate(202.0112478829953,218.58970834304876)" text-anchor="middle" x="0" y="0" style="font-family: 'Open Sans', verdana, arial, sans-serif; font-size: 12px; fill: rgb(68, 68, 68); fill-opacity: 1; white-space: pre;"><tspan class="line" dy="0em" x="0" y="0">get</tspan><tspan class="line" dy="1.3em" x="0" y="0">5%</tspan></text></g></g><g class="slice"><path class="surface" d="M287.355845521219,254.16608673341338a48,48 0 0 0 0.48738581225314304,14.791545148483706l-110.03246022189826,20.901141057759876a160,160 0 0 1 -1.6246193741771435,-49.30515049494569Z" style="pointer-events: none; stroke-width: 0; fill: rgb(241, 105, 19); fill-opacity: 1; stroke: rgb(68, 68, 68); stroke-opacity: 1;"/><g class="slicetext"><text data-notex="1" class="slicetext" transform="translate(195.40981227486495,261.2930572059251)rotate(-1.8872301721963822)" text-anchor="middle" x="0" y="0" style="font-family: 'Open Sans', verdana, arial, sans-serif; font-size: 12px; fill: rgb(68, 68, 68); fill-opacity: 1; white-space: pre;"><tspan class="line" dy="0em" x="0" y="0">not</tspan><tspan class="line" dy="1.3em" x="0" y="0">4.93%</tspan></text></g></g><g class="slice"><path class="surface" d="M287.84323133347215,268.9576318818971a48,48 0 0 0 4.939202925182928,13.882620806617998l-98.50765339647143,53.29392293986854a160,160 0 0 1 -16.464009750609762,-46.275402688726665Z" style="pointer-events: none; stroke-width: 0; fill: rgb(217, 72, 1); fill-opacity: 1; stroke: rgb(68, 68, 68); stroke-opacity: 1;"/><g class="slicetext"><text data-notex="1" class="slicetext" transform="translate(202.3412557940429,303.69013583050213)rotate(-19.584703013478247)" text-anchor="middle" x="0" y="0" style="font-family: 'Open Sans', verdana, arial, sans-serif; font-size: 12px; fill: rgb(255, 255, 255); fill-opacity: 1; white-space: pre;"><tspan class="line" dy="0em" x="0" y="0">take</tspan><tspan class="line" dy="1.3em" x="0" y="0">4.91%</tspan></text></g></g><g class="slice"><path class="surface" d="M292.7824342586551,282.8402526885151a48,48 0 0 0 8.605773829579947,11.427041404835968l-78.42751446078489,79.95701955115246a160,160 0 0 1 -28.685912765266494,-38.090138016119894Z" style="pointer-events: none; stroke-width: 0; fill: rgb(166, 54, 3); fill-opacity: 1; stroke: rgb(68, 68, 68); stroke-opacity: 1;"/><g class="slicetext"><text data-notex="1" class="slicetext" transform="translate(221.08976238722934,341.6494610418815)rotate(-36.98362402097939)" text-anchor="middle" x="0" y="0" style="font-family: 'Open Sans', verdana, arial, sans-serif; font-size: 12px; fill: rgb(255, 255, 255); fill-opacity: 1; white-space: pre;"><tspan class="line" dy="0em" x="0" y="0">go</tspan><tspan class="line" dy="1.3em" x="0" y="0">4.76%</tspan></text></g></g><g class="slice"><path class="surface" d="M301.38820808823505,294.26729409335104a48,48 0 0 0 11.411857266284995,8.290465501538558l-51.799847506119896,99.30143905474243a160,160 0 0 1 -38.039524220949986,-27.634885005128524Z" style="pointer-events: none; stroke-width: 0; fill: rgb(127, 39, 4); fill-opacity: 1; stroke: rgb(68, 68, 68); stroke-opacity: 1;"/><g class="slicetext"><text data-notex="1" class="slicetext" transform="translate(249.84277401585024,371.5966491188925)rotate(-54.002412489592416)" text-anchor="middle" x="0" y="0" style="font-family: 'Open Sans', verdana, arial, sans-serif; font-size: 12px; fill: rgb(255, 255, 255); fill-opacity: 1; white-space: pre;"><tspan class="line" dy="0em" x="0" y="0">leave</tspan><tspan class="line" dy="1.3em" x="0" y="0">4.69%</tspan></text></g></g><g class="slice"><path class="surface" d="M312.80006535452003,302.5577595948896a48,48 0 0 0 13.089846268328296,4.5697938081938725l-21.25687288002054,109.96429127386146a160,160 0 0 1 -43.63282089442765,-15.23264602731291Z" style="pointer-events: none; stroke-width: 0; fill: rgb(255, 245, 235); fill-opacity: 1; stroke: rgb(68, 68, 68); stroke-opacity: 1;"/><g class="slicetext"><text data-notex="1" class="slicetext" transform="translate(285.53413937648224,391.6650971761648)rotate(-70.75540411269537)" text-anchor="middle" x="0" y="0" style="font-family: 'Open Sans', verdana, arial, sans-serif; font-size: 12px; fill: rgb(68, 68, 68); fill-opacity: 1; white-space: pre;"><tspan class="line" dy="0em" x="0" y="0">tell</tspan><tspan class="line" dy="1.3em" x="0" y="0">4.61%</tspan></text></g></g><g class="slice"><path class="surface" d="M325.88991162284833,307.1275534030835a48,48 0 0 0 13.615097860114567,0.6605715816699359l10.511688793580115,111.50562496442465a160,160 0 0 1 -45.383659533715225,-2.2019052722331196Z" style="pointer-events: none; stroke-width: 0; fill: rgb(254, 230, 206); fill-opacity: 1; stroke: rgb(68, 68, 68); stroke-opacity: 1;"/><g class="slicetext"><text data-notex="1" class="slicetext" transform="translate(324.87211235916806,400.5534461736056)rotate(-87.22232565019442)" text-anchor="middle" x="0" y="0" style="font-family: 'Open Sans', verdana, arial, sans-serif; font-size: 12px; fill: rgb(68, 68, 68); fill-opacity: 1; white-space: pre;"><tspan class="line" dy="0em" x="0" y="0">car</tspan><tspan class="line" dy="1.3em" x="0" y="0">4.54%</tspan></text></g></g><g class="slice"><path class="surface" d="M339.5050094829629,307.78812498475344a48,48 0 0 0 12.912918669757298,-3.0598813475762854l40.641832356347145,104.36590182007998a160,160 0 0 1 -43.04306223252433,10.199604491920951Z" style="pointer-events: none; stroke-width: 0; fill: rgb(253, 208, 162); fill-opacity: 1; stroke: rgb(68, 68, 68); stroke-opacity: 1;"/><g class="slicetext"><text data-notex="1" class="slicetext" transform="translate(369.96846734491356,393.7282465937507)scale(0.9657399683000052)rotate(76.6689209904091)" text-anchor="middle" x="0" y="0" style="font-family: 'Open Sans', verdana, arial, sans-serif; font-size: 12px; fill: rgb(68, 68, 68); fill-opacity: 1; white-space: pre;"><tspan class="line" dy="0em" x="0" y="0">woman</tspan><tspan class="line" dy="1.3em" x="0" y="0">4.41%</tspan></text></g></g><g class="slice"><path class="surface" d="M352.4179281527202,304.7282436371771a48,48 0 0 0 11.318387551034771,-6.280562825792364l67.0514033087616,89.71125522656446a160,160 0 0 1 -37.72795850344924,20.93520941930788Z" style="pointer-events: none; stroke-width: 0; fill: rgb(253, 174, 107); fill-opacity: 1; stroke: rgb(68, 68, 68); stroke-opacity: 1;"/><g class="slicetext"><text data-notex="1" class="slicetext" transform="translate(406.5620237375402,382.1734307946603)scale(0.9970169510119828)rotate(60.97414618508617)" text-anchor="middle" x="0" y="0" style="font-family: 'Open Sans', verdana, arial, sans-serif; font-size: 12px; fill: rgb(68, 68, 68); fill-opacity: 1; white-space: pre;"><tspan class="line" dy="0em" x="0" y="0">killer</tspan><tspan class="line" dy="1.3em" x="0" y="0">4.31%</tspan></text></g></g><g class="slice"><path class="surface" d="M363.736315703755,298.44768081138477a48,48 0 0 0 9.211991832125493,-9.055063453241297l88.54605091705443,68.5827738356681a160,160 0 0 1 -30.706639440418314,30.183544844137657Z" style="pointer-events: none; stroke-width: 0; fill: rgb(253, 141, 60); fill-opacity: 1; stroke: rgb(68, 68, 68); stroke-opacity: 1;"/><g class="slicetext"><text data-notex="1" class="slicetext" transform="translate(430.4169968562139,357.1597744658961)rotate(-44.507796277310945)" text-anchor="middle" x="0" y="0" style="font-family: 'Open Sans', verdana, arial, sans-serif; font-size: 12px; fill: rgb(68, 68, 68); fill-opacity: 1; white-space: pre;"><tspan class="line" dy="0em" x="0" y="0">Alex</tspan><tspan class="line" dy="1.3em" x="0" y="0">4.3%</tspan></text></g></g><g class="slice"><path class="surface" d="M372.9483075358805,289.39261735814347a48,48 0 0 0 6.457358397361728,-11.16799574272184l103.61322051089846,42.52411710265048a160,160 0 0 1 -21.52452799120576,37.22665247573947Z" style="pointer-events: none; stroke-width: 0; fill: rgb(241, 105, 19); fill-opacity: 1; stroke: rgb(68, 68, 68); stroke-opacity: 1;"/><g class="slicetext"><text data-notex="1" class="slicetext" transform="translate(456.3372748749543,326.5636121890919)scale(0.9414565419416003)rotate(30.036590485517536)" text-anchor="middle" x="0" y="0" style="font-family: 'Open Sans', verdana, arial, sans-serif; font-size: 12px; fill: rgb(68, 68, 68); fill-opacity: 1; white-space: pre;"><tspan class="line" dy="0em" x="0" y="0">murder</tspan><tspan class="line" dy="1.3em" x="0" y="0">4.29%</tspan></text></g></g><g class="slice"><path class="surface" d="M379.4056659332422,278.22462161542165a48,48 0 0 0 3.2146239515914687,-12.19901033652152l111.11400973127856,14.059759650766937a160,160 0 0 1 -10.715413171971562,40.66336778840507Z" style="pointer-events: none; stroke-width: 0; fill: rgb(217, 72, 1); fill-opacity: 1; stroke: rgb(68, 68, 68); stroke-opacity: 1;"/><g class="slicetext"><text data-notex="1" class="slicetext" transform="translate(467.0341964270071,294.8576437235703)rotate(-75.23729573758715)" text-anchor="middle" x="0" y="0" style="font-family: 'Open Sans', verdana, arial, sans-serif; font-size: 12px; fill: rgb(255, 255, 255); fill-opacity: 1; white-space: pre;"><tspan class="line" dy="0em" x="0" y="0">see</tspan><tspan class="line" dy="1.3em" x="0" y="0">4.2%</tspan></text></g></g><g class="slice"><path class="surface" d="M382.62028988483365,266.0256112789001a48,48 0 0 0 -0.03954944021527353,-12.355946083778596l111.02172770410958,-14.77078121138312a160,160 0 0 1 0.13183146738424512,41.18648694592866Z" style="pointer-events: none; stroke-width: 0; fill: rgb(166, 54, 3); fill-opacity: 1; stroke: rgb(68, 68, 68); stroke-opacity: 1;"/><g class="slicetext"><text data-notex="1" class="slicetext" transform="translate(477.23573410804835,256.3686399613107)scale(0.9610801484206819)rotate(-0.18339415309691276)" text-anchor="middle" x="0" y="0" style="font-family: 'Open Sans', verdana, arial, sans-serif; font-size: 12px; fill: rgb(255, 255, 255); fill-opacity: 1; white-space: pre;"><tspan class="line" dy="0em" x="0" y="0">then</tspan><tspan class="line" dy="1.3em" x="0" y="0">4.11%</tspan></text></g></g><g class="slice"><path class="surface" d="M382.5807404446184,253.66966519512152a48,48 0 0 0 -3.1777400762864545,-11.900780308847114l103.60700085944119,-42.53926859869305a160,160 0 0 1 10.592466920954848,39.66926769615705Z" style="pointer-events: none; stroke-width: 0; fill: rgb(127, 39, 4); fill-opacity: 1; stroke: rgb(68, 68, 68); stroke-opacity: 1;"/><g class="slicetext"><text data-notex="1" class="slicetext" transform="translate(471.736081031034,220.2015860065274)scale(0.9610426315732511)rotate(-14.950287759432229)" text-anchor="middle" x="0" y="0" style="font-family: 'Open Sans', verdana, arial, sans-serif; font-size: 12px; fill: rgb(255, 255, 255); fill-opacity: 1; white-space: pre;"><tspan class="line" dy="0em" x="0" y="0">police</tspan><tspan class="line" dy="1.3em" x="0" y="0">4.1%</tspan></text></g></g><g class="slice"><path class="surface" d="M379.40300036833196,241.7688848862744a48,48 0 0 0 -5.991183998712671,-10.553122989560196l89.62757152911162,-67.16322224100017a160,160 0 0 1 19.970613329042237,35.17707663186732Z" style="pointer-events: none; stroke-width: 0; fill: rgb(255, 245, 235); fill-opacity: 1; stroke: rgb(68, 68, 68); stroke-opacity: 1;"/><g class="slicetext"><text data-notex="1" class="slicetext" transform="translate(457.38594519321595,186.91920549225463)scale(0.9474080436305877)rotate(-29.584300395643652)" text-anchor="middle" x="0" y="0" style="font-family: 'Open Sans', verdana, arial, sans-serif; font-size: 12px; fill: rgb(68, 68, 68); fill-opacity: 1; white-space: pre;"><tspan class="line" dy="0em" x="0" y="0">do</tspan><tspan class="line" dy="1.3em" x="0" y="0">4.03%</tspan></text></g></g><g class="slice"><path class="surface" d="M373.41181636961926,231.2157618967142a48,48 0 0 0 -7.672026571249931,-8.081265055522017l71.72617619619511,-86.01950737055155a160,160 0 0 1 25.573421904166437,26.93755018507339Z" style="pointer-events: none; stroke-width: 0; fill: rgb(254, 230, 206); fill-opacity: 1; stroke: rgb(68, 68, 68); stroke-opacity: 1;"/><g class="slicetext"><text data-notex="1" class="slicetext" transform="translate(440.1707943819965,160.0689171736368)rotate(46.488093159826406)" text-anchor="middle" x="0" y="0" style="font-family: 'Open Sans', verdana, arial, sans-serif; font-size: 12px; fill: rgb(68, 68, 68); fill-opacity: 1; white-space: pre;"><tspan class="line" dy="0em" x="0" y="0">try</tspan><tspan class="line" dy="1.3em" x="0" y="0">3.7%</tspan></text></g></g></g></g><g class="iciclelayer"/><g class="treemaplayer"/><g class="sunburstlayer"/><g class="glimages"/><defs id="topdefs-2947f8"><g class="clips"/><clipPath id="legend2947f8"><rect width="88" height="320" x="0" y="0"/></clipPath></defs><g class="layer-above"><g class="imagelayer"/><g class="shapelayer"/></g><g class="infolayer"><g class="legend" pointer-events="all" transform="translate(600.2,100)"><rect class="bg" shape-rendering="crispEdges" style="stroke: rgb(68, 68, 68); stroke-opacity: 1; fill: rgb(0, 0, 0); fill-opacity: 0; stroke-width: 0px;" width="88" height="320" x="0" y="0"/><g class="scrollbox" transform="" clip-path="url(#legend2947f8)"><g class="groups"><g class="traces" transform="translate(0,14.5)" style="opacity: 1;"><text class="legendtext" text-anchor="start" x="40" y="4.680000000000001" style="font-family: 'Open Sans', verdana, arial, sans-serif; font-size: 12px; fill: rgb(42, 63, 95); fill-opacity: 1; white-space: pre;">have</text><g class="layers" style="opacity: 1;"><g class="legendfill"/><g class="legendlines"/><g class="legendsymbols"><g class="legendpoints"><path class="legendpie" d="M6,6H-6V-6H6Z" transform="translate(20,0)" style="stroke-width: 0; fill: rgb(255, 245, 235); fill-opacity: 1; stroke: rgb(68, 68, 68); stroke-opacity: 1;"/></g></g></g><rect class="legendtoggle" x="0" y="-9.5" width="82.515625" height="19" style="fill: rgb(0, 0, 0); fill-opacity: 0;"/></g><g class="traces" transform="translate(0,33.5)" style="opacity: 1;"><text class="legendtext" text-anchor="start" x="40" y="4.680000000000001" style="font-family: 'Open Sans', verdana, arial, sans-serif; font-size: 12px; fill: rgb(42, 63, 95); fill-opacity: 1; white-space: pre;">man</text><g class="layers" style="opacity: 1;"><g class="legendfill"/><g class="legendlines"/><g class="legendsymbols"><g class="legendpoints"><path class="legendpie" d="M6,6H-6V-6H6Z" transform="translate(20,0)" style="stroke-width: 0; fill: rgb(254, 230, 206); fill-opacity: 1; stroke: rgb(68, 68, 68); stroke-opacity: 1;"/></g></g></g><rect class="legendtoggle" x="0" y="-9.5" width="82.515625" height="19" style="fill: rgb(0, 0, 0); fill-opacity: 0;"/></g><g class="traces" transform="translate(0,52.5)" style="opacity: 1;"><text class="legendtext" text-anchor="start" x="40" y="4.680000000000001" style="font-family: 'Open Sans', verdana, arial, sans-serif; font-size: 12px; fill: rgb(42, 63, 95); fill-opacity: 1; white-space: pre;">kill</text><g class="layers" style="opacity: 1;"><g class="legendfill"/><g class="legendlines"/><g class="legendsymbols"><g class="legendpoints"><path class="legendpie" d="M6,6H-6V-6H6Z" transform="translate(20,0)" style="stroke-width: 0; fill: rgb(253, 208, 162); fill-opacity: 1; stroke: rgb(68, 68, 68); stroke-opacity: 1;"/></g></g></g><rect class="legendtoggle" x="0" y="-9.5" width="82.515625" height="19" style="fill: rgb(0, 0, 0); fill-opacity: 0;"/></g><g class="traces" transform="translate(0,71.5)" style="opacity: 1;"><text class="legendtext" text-anchor="start" x="40" y="4.680000000000001" style="font-family: 'Open Sans', verdana, arial, sans-serif; font-size: 12px; fill: rgb(42, 63, 95); fill-opacity: 1; white-space: pre;">find</text><g class="layers" style="opacity: 1;"><g class="legendfill"/><g class="legendlines"/><g class="legendsymbols"><g class="legendpoints"><path class="legendpie" d="M6,6H-6V-6H6Z" transform="translate(20,0)" style="stroke-width: 0; fill: rgb(253, 174, 107); fill-opacity: 1; stroke: rgb(68, 68, 68); stroke-opacity: 1;"/></g></g></g><rect class="legendtoggle" x="0" y="-9.5" width="82.515625" height="19" style="fill: rgb(0, 0, 0); fill-opacity: 0;"/></g><g class="traces" transform="translate(0,90.5)" style="opacity: 1;"><text class="legendtext" text-anchor="start" x="40" y="4.680000000000001" style="font-family: 'Open Sans', verdana, arial, sans-serif; font-size: 12px; fill: rgb(42, 63, 95); fill-opacity: 1; white-space: pre;">get</text><g class="layers" style="opacity: 1;"><g class="legendfill"/><g class="legendlines"/><g class="legendsymbols"><g class="legendpoints"><path class="legendpie" d="M6,6H-6V-6H6Z" transform="translate(20,0)" style="stroke-width: 0; fill: rgb(253, 141, 60); fill-opacity: 1; stroke: rgb(68, 68, 68); stroke-opacity: 1;"/></g></g></g><rect class="legendtoggle" x="0" y="-9.5" width="82.515625" height="19" style="fill: rgb(0, 0, 0); fill-opacity: 0;"/></g><g class="traces" transform="translate(0,109.5)" style="opacity: 1;"><text class="legendtext" text-anchor="start" x="40" y="4.680000000000001" style="font-family: 'Open Sans', verdana, arial, sans-serif; font-size: 12px; fill: rgb(42, 63, 95); fill-opacity: 1; white-space: pre;">not</text><g class="layers" style="opacity: 1;"><g class="legendfill"/><g class="legendlines"/><g class="legendsymbols"><g class="legendpoints"><path class="legendpie" d="M6,6H-6V-6H6Z" transform="translate(20,0)" style="stroke-width: 0; fill: rgb(241, 105, 19); fill-opacity: 1; stroke: rgb(68, 68, 68); stroke-opacity: 1;"/></g></g></g><rect class="legendtoggle" x="0" y="-9.5" width="82.515625" height="19" style="fill: rgb(0, 0, 0); fill-opacity: 0;"/></g><g class="traces" transform="translate(0,128.5)" style="opacity: 1;"><text class="legendtext" text-anchor="start" x="40" y="4.680000000000001" style="font-family: 'Open Sans', verdana, arial, sans-serif; font-size: 12px; fill: rgb(42, 63, 95); fill-opacity: 1; white-space: pre;">take</text><g class="layers" style="opacity: 1;"><g class="legendfill"/><g class="legendlines"/><g class="legendsymbols"><g class="legendpoints"><path class="legendpie" d="M6,6H-6V-6H6Z" transform="translate(20,0)" style="stroke-width: 0; fill: rgb(217, 72, 1); fill-opacity: 1; stroke: rgb(68, 68, 68); stroke-opacity: 1;"/></g></g></g><rect class="legendtoggle" x="0" y="-9.5" width="82.515625" height="19" style="fill: rgb(0, 0, 0); fill-opacity: 0;"/></g><g class="traces" transform="translate(0,147.5)" style="opacity: 1;"><text class="legendtext" text-anchor="start" x="40" y="4.680000000000001" style="font-family: 'Open Sans', verdana, arial, sans-serif; font-size: 12px; fill: rgb(42, 63, 95); fill-opacity: 1; white-space: pre;">go</text><g class="layers" style="opacity: 1;"><g class="legendfill"/><g class="legendlines"/><g class="legendsymbols"><g class="legendpoints"><path class="legendpie" d="M6,6H-6V-6H6Z" transform="translate(20,0)" style="stroke-width: 0; fill: rgb(166, 54, 3); fill-opacity: 1; stroke: rgb(68, 68, 68); stroke-opacity: 1;"/></g></g></g><rect class="legendtoggle" x="0" y="-9.5" width="82.515625" height="19" style="fill: rgb(0, 0, 0); fill-opacity: 0;"/></g><g class="traces" transform="translate(0,166.5)" style="opacity: 1;"><text class="legendtext" text-anchor="start" x="40" y="4.680000000000001" style="font-family: 'Open Sans', verdana, arial, sans-serif; font-size: 12px; fill: rgb(42, 63, 95); fill-opacity: 1; white-space: pre;">leave</text><g class="layers" style="opacity: 1;"><g class="legendfill"/><g class="legendlines"/><g class="legendsymbols"><g class="legendpoints"><path class="legendpie" d="M6,6H-6V-6H6Z" transform="translate(20,0)" style="stroke-width: 0; fill: rgb(127, 39, 4); fill-opacity: 1; stroke: rgb(68, 68, 68); stroke-opacity: 1;"/></g></g></g><rect class="legendtoggle" x="0" y="-9.5" width="82.515625" height="19" style="fill: rgb(0, 0, 0); fill-opacity: 0;"/></g><g class="traces" transform="translate(0,185.5)" style="opacity: 1;"><text class="legendtext" text-anchor="start" x="40" y="4.680000000000001" style="font-family: 'Open Sans', verdana, arial, sans-serif; font-size: 12px; fill: rgb(42, 63, 95); fill-opacity: 1; white-space: pre;">tell</text><g class="layers" style="opacity: 1;"><g class="legendfill"/><g class="legendlines"/><g class="legendsymbols"><g class="legendpoints"><path class="legendpie" d="M6,6H-6V-6H6Z" transform="translate(20,0)" style="stroke-width: 0; fill: rgb(255, 245, 235); fill-opacity: 1; stroke: rgb(68, 68, 68); stroke-opacity: 1;"/></g></g></g><rect class="legendtoggle" x="0" y="-9.5" width="82.515625" height="19" style="fill: rgb(0, 0, 0); fill-opacity: 0;"/></g><g class="traces" transform="translate(0,204.5)" style="opacity: 1;"><text class="legendtext" text-anchor="start" x="40" y="4.680000000000001" style="font-family: 'Open Sans', verdana, arial, sans-serif; font-size: 12px; fill: rgb(42, 63, 95); fill-opacity: 1; white-space: pre;">car</text><g class="layers" style="opacity: 1;"><g class="legendfill"/><g class="legendlines"/><g class="legendsymbols"><g class="legendpoints"><path class="legendpie" d="M6,6H-6V-6H6Z" transform="translate(20,0)" style="stroke-width: 0; fill: rgb(254, 230, 206); fill-opacity: 1; stroke: rgb(68, 68, 68); stroke-opacity: 1;"/></g></g></g><rect class="legendtoggle" x="0" y="-9.5" width="82.515625" height="19" style="fill: rgb(0, 0, 0); fill-opacity: 0;"/></g><g class="traces" transform="translate(0,223.5)" style="opacity: 1;"><text class="legendtext" text-anchor="start" x="40" y="4.680000000000001" style="font-family: 'Open Sans', verdana, arial, sans-serif; font-size: 12px; fill: rgb(42, 63, 95); fill-opacity: 1; white-space: pre;">woman</text><g class="layers" style="opacity: 1;"><g class="legendfill"/><g class="legendlines"/><g class="legendsymbols"><g class="legendpoints"><path class="legendpie" d="M6,6H-6V-6H6Z" transform="translate(20,0)" style="stroke-width: 0; fill: rgb(253, 208, 162); fill-opacity: 1; stroke: rgb(68, 68, 68); stroke-opacity: 1;"/></g></g></g><rect class="legendtoggle" x="0" y="-9.5" width="82.515625" height="19" style="fill: rgb(0, 0, 0); fill-opacity: 0;"/></g><g class="traces" transform="translate(0,242.5)" style="opacity: 1;"><text class="legendtext" text-anchor="start" x="40" y="4.680000000000001" style="font-family: 'Open Sans', verdana, arial, sans-serif; font-size: 12px; fill: rgb(42, 63, 95); fill-opacity: 1; white-space: pre;">killer</text><g class="layers" style="opacity: 1;"><g class="legendfill"/><g class="legendlines"/><g class="legendsymbols"><g class="legendpoints"><path class="legendpie" d="M6,6H-6V-6H6Z" transform="translate(20,0)" style="stroke-width: 0; fill: rgb(253, 174, 107); fill-opacity: 1; stroke: rgb(68, 68, 68); stroke-opacity: 1;"/></g></g></g><rect class="legendtoggle" x="0" y="-9.5" width="82.515625" height="19" style="fill: rgb(0, 0, 0); fill-opacity: 0;"/></g><g class="traces" transform="translate(0,261.5)" style="opacity: 1;"><text class="legendtext" text-anchor="start" x="40" y="4.680000000000001" style="font-family: 'Open Sans', verdana, arial, sans-serif; font-size: 12px; fill: rgb(42, 63, 95); fill-opacity: 1; white-space: pre;">Alex</text><g class="layers" style="opacity: 1;"><g class="legendfill"/><g class="legendlines"/><g class="legendsymbols"><g class="legendpoints"><path class="legendpie" d="M6,6H-6V-6H6Z" transform="translate(20,0)" style="stroke-width: 0; fill: rgb(253, 141, 60); fill-opacity: 1; stroke: rgb(68, 68, 68); stroke-opacity: 1;"/></g></g></g><rect class="legendtoggle" x="0" y="-9.5" width="82.515625" height="19" style="fill: rgb(0, 0, 0); fill-opacity: 0;"/></g><g class="traces" transform="translate(0,280.5)" style="opacity: 1;"><text class="legendtext" text-anchor="start" x="40" y="4.680000000000001" style="font-family: 'Open Sans', verdana, arial, sans-serif; font-size: 12px; fill: rgb(42, 63, 95); fill-opacity: 1; white-space: pre;">murder</text><g class="layers" style="opacity: 1;"><g class="legendfill"/><g class="legendlines"/><g class="legendsymbols"><g class="legendpoints"><path class="legendpie" d="M6,6H-6V-6H6Z" transform="translate(20,0)" style="stroke-width: 0; fill: rgb(241, 105, 19); fill-opacity: 1; stroke: rgb(68, 68, 68); stroke-opacity: 1;"/></g></g></g><rect class="legendtoggle" x="0" y="-9.5" width="82.515625" height="19" style="fill: rgb(0, 0, 0); fill-opacity: 0;"/></g><g class="traces" transform="translate(0,299.5)" style="opacity: 1;"><text class="legendtext" text-anchor="start" x="40" y="4.680000000000001" style="font-family: 'Open Sans', verdana, arial, sans-serif; font-size: 12px; fill: rgb(42, 63, 95); fill-opacity: 1; white-space: pre;">see</text><g class="layers" style="opacity: 1;"><g class="legendfill"/><g class="legendlines"/><g class="legendsymbols"><g class="legendpoints"><path class="legendpie" d="M6,6H-6V-6H6Z" transform="translate(20,0)" style="stroke-width: 0; fill: rgb(217, 72, 1); fill-opacity: 1; stroke: rgb(68, 68, 68); stroke-opacity: 1;"/></g></g></g><rect class="legendtoggle" x="0" y="-9.5" width="82.515625" height="19" style="fill: rgb(0, 0, 0); fill-opacity: 0;"/></g><g class="traces" transform="translate(0,318.5)" style="opacity: 1;"><text class="legendtext" text-anchor="start" x="40" y="4.680000000000001" style="font-family: 'Open Sans', verdana, arial, sans-serif; font-size: 12px; fill: rgb(42, 63, 95); fill-opacity: 1; white-space: pre;">then</text><g class="layers" style="opacity: 1;"><g class="legendfill"/><g class="legendlines"/><g class="legendsymbols"><g class="legendpoints"><path class="legendpie" d="M6,6H-6V-6H6Z" transform="translate(20,0)" style="stroke-width: 0; fill: rgb(166, 54, 3); fill-opacity: 1; stroke: rgb(68, 68, 68); stroke-opacity: 1;"/></g></g></g><rect class="legendtoggle" x="0" y="-9.5" width="82.515625" height="19" style="fill: rgb(0, 0, 0); fill-opacity: 0;"/></g><g class="traces" transform="translate(0,337.5)" style="opacity: 1;"><text class="legendtext" text-anchor="start" x="40" y="4.680000000000001" style="font-family: 'Open Sans', verdana, arial, sans-serif; font-size: 12px; fill: rgb(42, 63, 95); fill-opacity: 1; white-space: pre;">police</text><g class="layers" style="opacity: 1;"><g class="legendfill"/><g class="legendlines"/><g class="legendsymbols"><g class="legendpoints"><path class="legendpie" d="M6,6H-6V-6H6Z" transform="translate(20,0)" style="stroke-width: 0; fill: rgb(127, 39, 4); fill-opacity: 1; stroke: rgb(68, 68, 68); stroke-opacity: 1;"/></g></g></g><rect class="legendtoggle" x="0" y="-9.5" width="82.515625" height="19" style="fill: rgb(0, 0, 0); fill-opacity: 0;"/></g><g class="traces" transform="translate(0,356.5)" style="opacity: 1;"><text class="legendtext" text-anchor="start" x="40" y="4.680000000000001" style="font-family: 'Open Sans', verdana, arial, sans-serif; font-size: 12px; fill: rgb(42, 63, 95); fill-opacity: 1; white-space: pre;">do</text><g class="layers" style="opacity: 1;"><g class="legendfill"/><g class="legendlines"/><g class="legendsymbols"><g class="legendpoints"><path class="legendpie" d="M6,6H-6V-6H6Z" transform="translate(20,0)" style="stroke-width: 0; fill: rgb(255, 245, 235); fill-opacity: 1; stroke: rgb(68, 68, 68); stroke-opacity: 1;"/></g></g></g><rect class="legendtoggle" x="0" y="-9.5" width="82.515625" height="19" style="fill: rgb(0, 0, 0); fill-opacity: 0;"/></g><g class="traces" transform="translate(0,375.5)" style="opacity: 1;"><text class="legendtext" text-anchor="start" x="40" y="4.680000000000001" style="font-family: 'Open Sans', verdana, arial, sans-serif; font-size: 12px; fill: rgb(42, 63, 95); fill-opacity: 1; white-space: pre;">try</text><g class="layers" style="opacity: 1;"><g class="legendfill"/><g class="legendlines"/><g class="legendsymbols"><g class="legendpoints"><path class="legendpie" d="M6,6H-6V-6H6Z" transform="translate(20,0)" style="stroke-width: 0; fill: rgb(254, 230, 206); fill-opacity: 1; stroke: rgb(68, 68, 68); stroke-opacity: 1;"/></g></g></g><rect class="legendtoggle" x="0" y="-9.5" width="82.515625" height="19" style="fill: rgb(0, 0, 0); fill-opacity: 0;"/></g></g></g><rect class="scrollbar" rx="20" ry="3" width="0" height="0" style="fill: rgb(128, 139, 164); fill-opacity: 1;" x="0" y="0"/></g><g class="g-gtitle"><text class="gtitle" x="35" y="50" text-anchor="start" dy="0em" style="font-family: 'Open Sans', verdana, arial, sans-serif; font-size: 17px; fill: rgb(42, 63, 95); opacity: 1; font-weight: normal; white-space: pre;">Low revenue topic 1 of genre: Thriller</text></g></g></svg>